# Blender 4.1.1
# www.blender.org
mtllib stage2.mtl
o ステージ本体
v -94.824852 -592.770569 -28.479507
v -94.824852 -591.363098 -28.479507
v 25.348217 -592.770569 -28.479504
v -94.824860 -591.363098 93.665062
v -94.824860 -592.770508 93.665062
v 25.348209 -592.770508 93.665062
v 25.348209 -591.363098 93.665062
v 25.348217 -591.363098 -28.479504
v -94.974243 -1.707279 -28.479595
v -94.974243 -0.299809 -28.479595
v -34.856392 -1.707279 -28.479591
v -94.974243 -0.299791 93.664970
v -94.974243 -1.707261 93.664970
v -34.856396 -1.707261 93.664970
v -34.856396 -0.299791 93.664970
v -34.856392 -0.299809 -28.479591
v -94.766815 -0.744993 13.588604
v -76.643723 -0.744995 4.474079
v -94.766815 -0.744995 4.474079
v -94.766815 2.402468 13.588604
v -76.643723 2.402468 13.588604
v -76.643723 -0.744993 13.588604
v -76.643723 2.402466 4.474078
v -94.766815 2.402466 4.474078
v -94.766815 -0.646236 27.319607
v -76.643723 -0.646238 18.717556
v -94.766815 -0.646238 18.717556
v -94.766815 5.246830 27.319605
v -76.643723 5.246830 27.319605
v -76.643723 -0.646236 27.319607
v -76.643723 5.246830 18.717554
v -94.766815 5.246830 18.717554
v -94.766815 -0.413932 51.116653
v -76.643723 -0.413936 32.280937
v -94.766815 -0.413936 32.280937
v -94.766815 7.270821 51.116653
v -76.643723 7.270821 51.116653
v -76.643723 -0.413932 51.116653
v -76.643723 7.270817 32.280937
v -94.766815 7.270817 32.280937
v -35.285118 -0.439073 93.590378
v -76.369606 -0.439079 50.685635
v -76.369606 -0.439073 93.590378
v -35.285118 14.202467 93.590378
v -35.285118 14.202461 50.685635
v -35.285118 -0.439079 50.685635
v -76.369606 14.202461 50.685635
v -76.369606 14.202467 93.590378
v -76.426773 -0.413377 93.633423
v -94.670776 -0.413383 50.937683
v -94.670776 -0.413377 93.633423
v -76.426773 10.462965 93.633423
v -76.426773 10.462959 50.937683
v -76.426773 -0.413383 50.937683
v -94.670776 10.462959 50.937683
v -94.670776 10.462965 93.633423
v -35.184010 14.022535 93.345566
v -63.226616 14.022535 93.345566
v -35.184013 14.022532 67.710785
v -35.184010 27.256363 93.345566
v -35.184013 27.256359 67.710785
v -63.226620 27.256359 67.710785
v -63.226616 27.256363 93.345566
v -63.226620 14.022532 67.710785
v -48.001060 14.170420 67.774010
v -56.603111 14.170420 58.616077
v -56.603111 14.170420 67.774010
v -48.001060 18.894360 67.774010
v -48.001060 18.894356 58.616077
v -48.001060 14.170420 58.616077
v -56.603111 18.894356 58.616077
v -56.603111 18.894360 67.774010
v -39.506901 12.868662 67.751945
v -48.108952 12.868662 58.594013
v -48.108952 12.868662 67.751945
v -39.506901 21.635265 67.751945
v -39.506901 21.635262 58.594013
v -39.506901 12.868662 58.594013
v -48.108952 21.635262 58.594013
v -48.108952 21.635265 67.751945
v -56.537823 14.110056 67.836456
v -63.206676 14.110056 58.566650
v -63.206676 14.110056 67.836456
v -56.537823 17.124340 67.836456
v -56.537823 17.124336 58.566650
v -56.537823 14.110056 58.566650
v -63.206676 17.124336 58.566650
v -63.206676 17.124340 67.836456
v -42.855701 47.522476 91.836388
v -54.155071 47.522476 87.165443
v -54.155071 47.522476 91.836388
v -42.855701 51.759964 91.836372
v -42.855701 51.759964 87.165428
v -42.855701 47.522476 87.165443
v -54.155071 51.759964 87.165428
v -54.155071 51.759964 91.836372
v -37.608181 47.522476 91.850029
v -42.888325 47.522476 91.850029
v -37.608185 47.522469 69.111534
v -37.608181 51.759964 91.850014
v -37.608185 51.759956 69.111519
v -42.888325 51.759956 69.111519
v -42.888325 51.759964 91.850014
v -42.888325 47.522469 69.111534
v -54.164894 47.522476 91.850029
v -59.445038 47.522469 69.111534
v -59.445038 47.522476 91.850029
v -54.164894 51.759964 91.850014
v -54.164894 51.759956 69.111519
v -54.164894 47.522469 69.111534
v -59.445038 51.759956 69.111519
v -59.445038 51.759964 91.850014
v -42.855698 47.522469 73.834503
v -54.155067 47.522469 69.163559
v -54.155067 47.522469 73.834503
v -42.855698 51.759956 73.834488
v -42.855698 51.759956 69.163544
v -42.855698 47.522469 69.163559
v -54.155067 51.759956 69.163544
v -54.155067 51.759956 73.834488
v -5.967426 48.876236 91.558319
v -29.989567 48.876228 69.308945
v -29.989567 48.876236 91.558319
v -5.967426 51.560257 91.558304
v -5.967426 51.560249 69.308922
v -5.967426 48.876228 69.308937
v -29.989567 51.560249 69.308929
v -29.989567 51.560257 91.558304
v 24.925629 48.876236 91.912918
v 0.903488 48.876221 -12.242773
v 0.903488 48.876236 91.912918
v 24.925629 51.560257 91.912903
v 24.925629 51.560242 -12.242773
v 24.925629 48.876221 -12.242773
v 0.903488 51.560242 -12.242773
v 0.903488 51.560257 91.912903
v -33.705894 48.876228 25.465109
v -78.188988 48.876221 -12.362682
v -78.188988 48.876228 25.465113
v -33.705894 51.560249 25.465109
v -33.705894 51.560242 -12.362686
v -33.705894 48.876221 -12.362686
v -78.188988 51.560242 -12.362682
v -78.188988 51.560249 25.465113
v -41.500000 51.500000 3.249996
v -41.500000 59.500000 3.249995
v -41.500000 51.500000 -12.350004
v -41.500000 59.500000 -12.350005
v -39.500000 51.500000 3.249996
v -39.500000 59.500000 3.249995
v -39.500000 51.500000 -12.350004
v -39.500000 59.500000 -12.350005
v -41.500000 51.500004 25.399998
v -41.500000 59.500004 25.399998
v -41.500000 51.500000 8.999997
v -39.500000 51.500004 25.399998
v -39.500000 59.500004 25.399998
v -39.500000 51.500000 8.999997
v -41.500000 59.500000 8.999996
v -39.500000 59.500000 8.999996
v -77.500000 51.500000 -10.349030
v -77.500000 59.500000 -10.349032
v -77.500000 51.500000 -12.349030
v -41.500000 51.500000 -10.349030
v -41.500000 59.500000 -10.349032
v -41.500000 51.500000 -12.349030
v -77.500000 59.500000 -12.349032
v -41.500000 59.500000 -12.349032
v -77.500000 51.500008 25.458288
v -77.500000 59.500008 25.458288
v -77.500000 51.500000 23.458288
v -77.500000 59.500000 23.458288
v -41.500000 51.500008 25.458288
v -41.500000 59.500008 25.458288
v -41.500000 51.500000 23.458288
v -41.500000 59.500000 23.458288
vn -1.0000 -0.0000 -0.0000
vn -0.0000 -0.0000 -1.0000
vn -0.0000 -1.0000 -0.0000
vn -0.0000 -0.0000 1.0000
vn 1.0000 -0.0000 -0.0000
vn -0.0000 1.0000 -0.0000
vt 0.127149 0.374298
vt 0.001547 0.499900
vt 0.000100 0.498453
vt 0.499900 0.001547
vt 0.374878 0.123675
vt 0.498453 0.000100
vt 0.249276 0.249276
vt 0.000100 0.247249
vt 0.123675 0.123675
vt 0.125702 0.372851
vt 0.250724 0.250724
vt 0.376326 0.125122
vt 0.376326 0.376326
vt 0.252751 0.499900
vt 0.001252 0.500845
vt 0.000300 0.502349
vt 0.000300 0.503272
vt 0.000300 0.501566
vt 0.447305 0.829195
vt 0.447305 0.830103
vt 0.447305 0.829180
vt 0.446774 0.832924
vt 0.397555 0.773648
vt 0.397555 0.773634
vt 0.458400 0.840675
vt 0.358989 0.908838
vt 0.397555 0.772850
vt 0.410124 0.803203
vt 0.398507 0.772129
vt 0.408014 0.804970
vt 0.408014 0.802995
vt 0.406105 0.846309
vt 0.406105 0.848285
vt 0.414222 0.783324
vt 0.397555 0.774557
vt 0.413166 0.788769
vt 0.391548 0.836841
vt 0.000500 0.500100
vt 0.447010 0.935160
vt 0.390362 0.784129
vt 0.323587 0.755099
vt 0.318876 0.789322
vt 0.343711 0.811711
vt 0.379558 0.902919
vt 0.325358 0.766414
vt 0.000100 0.500100
vt 0.379061 0.807698
vt 0.000700 0.500100
vt 0.111435 0.500100
vt 0.000900 0.500100
vt 0.111635 0.500100
vt 0.001100 0.500100
vt 0.111835 0.500100
vt 0.001299 0.500100
vt 0.754909 0.838303
vt 0.754299 0.741257
vt 0.862211 0.741257
vt 0.001499 0.500100
vt 0.909702 0.977096
vt 0.909702 0.918069
vt 0.982911 0.918069
vt 0.001699 0.500100
vt 0.571503 0.876516
vt 0.579164 0.774783
vt 0.677011 0.816262
vt 0.576299 0.774783
vt 0.014752 0.984993
vt 0.335884 0.826272
vt 0.014952 0.984993
vt 0.015151 0.984993
vt 0.015351 0.984993
vt 0.336483 0.826272
vt 0.336683 0.826272
vt 0.336883 0.826272
vt 0.337083 0.826272
vt 0.961122 0.000000
vt 0.976931 0.017225
vt 0.000000 0.000000
vt 0.967322 0.000000
vt 0.973523 0.000000
s 1
usemtl マテリアル.003
f 4/1/1 2/2/1 1/3/1
f 2/4/2 3/5/2 1/6/2
f 6/7/3 1/8/3 3/9/3
f 4/1/1 1/3/1 5/10/1
f 6/7/3 5/10/3 1/8/3
f 7/11/4 5/10/4 6/7/4
f 8/12/5 6/7/5 3/5/5
f 8/12/5 7/11/5 6/7/5
f 2/4/2 8/12/2 3/5/2
f 8/13/6 4/1/6 7/11/6
f 8/13/6 2/14/6 4/1/6
f 7/11/4 4/1/4 5/10/4
s 0
f 150/76/4 146/76/4 145/76/4
f 145/77/1 146/77/1 148/77/1
f 151/78/3 145/78/3 147/78/3
f 145/77/1 148/77/1 147/77/1
f 151/78/3 149/78/3 145/78/3
f 150/76/4 145/76/4 149/76/4
f 148/77/2 151/77/2 147/77/2
f 148/77/2 152/77/2 151/77/2
f 152/77/5 149/77/5 151/77/5
f 148/77/6 150/77/6 152/77/6
f 152/77/5 150/77/5 149/77/5
f 148/77/6 146/77/6 150/77/6
f 157/79/4 154/79/4 153/79/4
f 154/77/1 155/77/1 153/77/1
f 158/78/3 153/78/3 155/78/3
f 158/78/3 156/78/3 153/78/3
f 157/79/4 153/79/4 156/79/4
f 159/77/2 158/77/2 155/77/2
f 159/77/2 160/77/2 158/77/2
f 158/77/5 157/77/5 156/77/5
f 158/77/5 160/77/5 157/77/5
f 159/77/6 157/77/6 160/77/6
f 159/77/6 154/77/6 157/77/6
f 154/77/1 159/77/1 155/77/1
f 165/77/4 162/77/4 161/77/4
f 162/77/1 163/77/1 161/77/1
f 166/78/3 161/78/3 163/78/3
f 166/78/3 164/78/3 161/78/3
f 165/77/4 161/77/4 164/77/4
f 167/77/2 166/77/2 163/77/2
f 167/77/2 168/77/2 166/77/2
f 168/78/5 164/78/5 166/78/5
f 167/77/6 165/77/6 168/77/6
f 168/78/5 165/78/5 164/78/5
f 167/77/6 162/77/6 165/77/6
f 162/77/1 167/77/1 163/77/1
f 174/80/4 170/80/4 169/80/4
f 169/77/1 170/77/1 172/77/1
f 175/78/3 169/78/3 171/78/3
f 169/77/1 172/77/1 171/77/1
f 175/78/3 173/78/3 169/78/3
f 174/80/4 169/80/4 173/80/4
f 172/77/2 175/77/2 171/77/2
f 172/77/2 176/77/2 175/77/2
f 176/78/5 173/78/5 175/78/5
f 172/77/6 174/77/6 176/77/6
f 176/78/5 174/78/5 173/78/5
f 172/77/6 170/77/6 174/77/6
s 1
usemtl マテリアル
f 12/1/1 10/2/1 9/3/1
f 10/4/2 11/5/2 9/6/2
f 14/7/3 9/8/3 11/9/3
f 12/1/1 9/3/1 13/10/1
f 14/7/3 13/10/3 9/8/3
f 16/12/5 14/7/5 11/5/5
f 15/11/4 13/10/4 14/7/4
f 16/12/5 15/11/5 14/7/5
f 16/13/6 10/14/6 12/1/6
f 10/4/2 16/12/2 11/5/2
f 16/13/6 12/1/6 15/11/6
f 15/11/4 12/1/4 13/10/4
f 18/15/3 17/16/3 19/17/3
f 18/15/3 22/18/3 17/16/3
f 20/19/1 19/20/1 17/21/1
f 21/22/4 20/23/4 17/24/4
f 21/25/4 17/26/4 22/27/4
f 23/28/5 22/27/5 18/29/5
f 23/28/5 21/30/5 22/27/5
f 24/31/2 23/28/2 18/29/2
f 24/32/6 21/33/6 23/34/6
f 24/31/2 18/29/2 19/35/2
f 20/19/1 24/36/1 19/20/1
f 24/32/6 20/37/6 21/33/6
f 26/38/3 25/38/3 27/38/3
f 26/38/3 30/38/3 25/38/3
f 28/39/1 27/40/1 25/40/1
f 29/41/4 28/39/4 25/40/4
f 29/41/4 25/40/4 30/42/4
f 31/43/5 30/42/5 26/42/5
f 31/43/5 29/44/5 30/42/5
f 32/44/2 31/43/2 26/42/2
f 32/45/6 29/45/6 31/45/6
f 32/44/2 26/42/2 27/40/2
f 28/39/1 32/41/1 27/40/1
f 32/44/6 28/39/6 29/44/6
f 34/46/3 33/46/3 35/46/3
f 34/46/3 38/46/3 33/46/3
f 36/47/1 35/47/1 33/47/1
f 37/46/4 36/46/4 33/46/4
f 37/46/4 33/46/4 38/46/4
f 39/47/5 38/47/5 34/47/5
f 39/47/5 37/47/5 38/47/5
f 40/47/2 39/47/2 34/47/2
f 40/47/6 37/47/6 39/47/6
f 40/47/2 34/47/2 35/47/2
f 36/47/1 40/47/1 35/47/1
f 40/47/6 36/47/6 37/47/6
f 42/48/3 41/48/3 43/48/3
f 42/48/3 46/48/3 41/48/3
f 44/49/4 43/49/4 41/49/4
f 45/49/5 44/49/5 41/49/5
f 45/49/5 41/49/5 46/49/5
f 47/49/2 46/49/2 42/49/2
f 47/49/2 45/49/2 46/49/2
f 48/49/1 47/49/1 42/49/1
f 48/49/6 45/49/6 47/49/6
f 48/49/1 42/49/1 43/49/1
f 44/49/4 48/49/4 43/49/4
f 48/49/6 44/49/6 45/49/6
f 50/50/3 49/50/3 51/50/3
f 50/50/3 54/50/3 49/50/3
f 52/51/4 51/51/4 49/51/4
f 53/50/5 52/50/5 49/50/5
f 53/50/5 49/50/5 54/50/5
f 55/51/2 54/51/2 50/51/2
f 55/51/2 53/51/2 54/51/2
f 56/51/1 55/51/1 50/51/1
f 56/51/6 53/51/6 55/51/6
f 56/51/1 50/51/1 51/51/1
f 52/51/4 56/51/4 51/51/4
f 56/51/6 52/51/6 53/51/6
f 58/52/3 59/52/3 57/52/3
f 60/53/4 58/53/4 57/53/4
f 61/53/5 57/53/5 59/53/5
f 61/53/5 60/53/5 57/53/5
f 62/52/2 61/52/2 59/52/2
f 63/53/6 60/53/6 61/53/6
f 63/53/6 61/53/6 62/53/6
f 63/53/1 64/53/1 58/53/1
f 60/53/4 63/53/4 58/53/4
f 63/53/1 62/53/1 64/53/1
f 58/52/3 64/52/3 59/52/3
f 62/52/2 59/52/2 64/52/2
f 66/54/3 65/54/3 67/54/3
f 66/54/3 70/54/3 65/54/3
f 68/54/4 67/54/4 65/54/4
f 69/54/5 68/54/5 65/54/5
f 69/54/5 65/54/5 70/54/5
f 71/55/2 70/56/2 66/57/2
f 71/55/2 69/56/2 70/56/2
f 72/56/1 71/55/1 66/57/1
f 72/56/6 69/56/6 71/55/6
f 72/56/1 66/57/1 67/56/1
f 68/54/4 72/54/4 67/54/4
f 72/56/6 68/56/6 69/56/6
f 74/58/3 73/58/3 75/58/3
f 74/58/3 78/58/3 73/58/3
f 76/58/4 75/58/4 73/58/4
f 77/59/5 76/60/5 73/60/5
f 77/59/5 73/60/5 78/60/5
f 79/60/2 78/60/2 74/60/2
f 79/60/2 77/59/2 78/60/2
f 80/61/1 79/60/1 74/60/1
f 80/61/6 77/59/6 79/60/6
f 80/61/1 74/60/1 75/60/1
f 76/58/4 80/58/4 75/58/4
f 80/61/6 76/60/6 77/59/6
f 82/62/3 81/62/3 83/62/3
f 82/62/3 86/62/3 81/62/3
f 84/62/4 83/62/4 81/62/4
f 85/62/5 84/62/5 81/62/5
f 85/62/5 81/62/5 86/62/5
f 87/63/2 86/64/2 82/65/2
f 87/63/2 85/66/2 86/64/2
f 88/66/1 87/63/1 82/65/1
f 88/66/6 85/66/6 87/63/6
f 88/66/1 82/65/1 83/66/1
f 84/62/4 88/62/4 83/62/4
f 88/66/6 84/66/6 85/66/6
f 90/67/3 89/67/3 91/67/3
f 90/67/3 94/67/3 89/67/3
f 92/67/4 91/67/4 89/67/4
f 93/68/5 92/68/5 89/68/5
f 93/68/5 89/68/5 94/68/5
f 95/67/2 94/67/2 90/67/2
f 95/67/2 93/67/2 94/67/2
f 96/68/1 95/68/1 90/68/1
f 96/67/6 93/67/6 95/67/6
f 96/68/1 90/68/1 91/68/1
f 92/67/4 96/67/4 91/67/4
f 96/67/6 92/67/6 93/67/6
f 98/69/3 99/69/3 97/69/3
f 100/69/4 98/69/4 97/69/4
f 101/69/5 97/69/5 99/69/5
f 101/69/5 100/69/5 97/69/5
f 102/69/2 101/69/2 99/69/2
f 103/69/6 100/69/6 101/69/6
f 103/69/6 101/69/6 102/69/6
f 103/69/1 104/69/1 98/69/1
f 100/69/4 103/69/4 98/69/4
f 103/69/1 102/69/1 104/69/1
f 98/69/3 104/69/3 99/69/3
f 102/69/2 99/69/2 104/69/2
f 106/70/3 105/70/3 107/70/3
f 106/70/3 110/70/3 105/70/3
f 108/70/4 107/70/4 105/70/4
f 109/70/5 108/70/5 105/70/5
f 109/70/5 105/70/5 110/70/5
f 111/70/2 110/70/2 106/70/2
f 111/70/2 109/70/2 110/70/2
f 112/70/1 111/70/1 106/70/1
f 112/70/6 109/70/6 111/70/6
f 112/70/1 106/70/1 107/70/1
f 108/70/4 112/70/4 107/70/4
f 112/70/6 108/70/6 109/70/6
f 114/71/3 113/71/3 115/71/3
f 114/71/3 118/71/3 113/71/3
f 116/71/4 115/71/4 113/71/4
f 117/72/5 116/72/5 113/72/5
f 117/72/5 113/72/5 118/72/5
f 119/71/2 118/71/2 114/71/2
f 119/71/2 117/71/2 118/71/2
f 120/72/1 119/72/1 114/72/1
f 120/71/6 117/71/6 119/71/6
f 120/72/1 114/72/1 115/72/1
f 116/71/4 120/71/4 115/71/4
f 120/71/6 116/71/6 117/71/6
f 122/73/3 121/73/3 123/73/3
f 122/73/3 126/73/3 121/73/3
f 124/73/4 123/73/4 121/73/4
f 125/73/5 124/73/5 121/73/5
f 125/73/5 121/73/5 126/73/5
f 127/73/2 126/73/2 122/73/2
f 127/73/2 125/73/2 126/73/2
f 128/73/1 127/73/1 122/73/1
f 127/73/6 124/73/6 125/73/6
f 127/73/6 128/73/6 124/73/6
f 128/73/1 122/73/1 123/73/1
f 124/73/4 128/73/4 123/73/4
f 130/74/3 129/74/3 131/74/3
f 130/74/3 134/74/3 129/74/3
f 132/74/4 131/74/4 129/74/4
f 133/74/5 132/74/5 129/74/5
f 133/74/5 129/74/5 134/74/5
f 135/74/2 134/74/2 130/74/2
f 135/74/2 133/74/2 134/74/2
f 136/74/1 135/74/1 130/74/1
f 136/74/6 133/74/6 135/74/6
f 136/74/1 130/74/1 131/74/1
f 132/74/4 136/74/4 131/74/4
f 136/74/6 132/74/6 133/74/6
f 138/75/3 137/75/3 139/75/3
f 138/75/3 142/75/3 137/75/3
f 140/75/4 139/75/4 137/75/4
f 141/75/5 140/75/5 137/75/5
f 141/75/5 137/75/5 142/75/5
f 143/75/2 142/75/2 138/75/2
f 143/75/2 141/75/2 142/75/2
f 144/75/1 143/75/1 138/75/1
f 143/75/6 140/75/6 141/75/6
f 143/75/6 144/75/6 140/75/6
f 144/75/1 138/75/1 139/75/1
f 140/75/4 144/75/4 139/75/4
