# Blender 4.1.1
# www.blender.org
mtllib stage3.mtl
o ステージ本体
v 88.119049 -346.016388 -126.645195
v 88.119049 -348.016418 -126.645195
v 88.119049 -346.016388 126.645294
v -88.119049 -346.016388 -126.645195
v -88.119049 -348.016418 -126.645195
v -88.119049 -346.016388 126.645294
v -88.119049 -348.016418 126.645294
v 88.119049 -348.016418 126.645294
v 19.798834 -32.356224 47.287785
v 7.685942 -32.356224 47.328468
v 19.798834 -27.544548 47.287785
v 19.710489 -32.356232 20.979460
v 7.597597 -32.356232 21.020132
v 19.710489 -27.544552 20.979460
v 7.597597 -27.544552 21.020132
v 7.685942 -27.544548 47.328468
v 48.364075 -27.164341 -37.495750
v 24.559484 -27.164341 -37.415813
v 48.364075 -19.512089 -37.495758
v 48.279243 -27.164345 -62.757320
v 48.279243 -19.512093 -62.757328
v 24.474653 -19.512093 -62.677391
v 24.559484 -19.512089 -37.415821
v 24.474653 -27.164345 -62.677383
v 38.908775 -25.744083 -25.204132
v 34.097122 -25.744083 -25.187971
v 38.908775 -20.932377 -25.204132
v 38.892616 -25.744083 -30.015785
v 34.080963 -25.744083 -29.999624
v 38.892616 -20.932377 -30.015785
v 34.080963 -20.932377 -29.999624
v 34.097122 -20.932377 -25.187971
v 29.816771 -25.744083 -25.173599
v 25.005117 -25.744083 -25.157440
v 29.816771 -20.932377 -25.173599
v 29.800611 -25.744083 -29.985252
v 24.988958 -25.744083 -29.969093
v 29.800611 -20.932377 -29.985252
v 24.988958 -20.932377 -29.969093
v 25.005117 -20.932377 -25.157440
v 24.813971 -25.744083 -25.156803
v 20.002314 -25.744083 -25.140642
v 24.813971 -20.932377 -25.156803
v 24.797812 -25.744083 -29.968456
v 19.986158 -25.744083 -29.952295
v 24.797812 -20.932377 -29.968456
v 19.986158 -20.932377 -29.952295
v 20.002314 -20.932377 -25.140642
v 24.813971 -20.933659 -25.156803
v 20.002314 -20.933659 -25.140642
v 24.813971 -18.078861 -25.156803
v 24.797812 -20.933659 -29.968456
v 19.986158 -20.933659 -29.952295
v 24.797812 -18.078861 -29.968456
v 19.986158 -18.078861 -29.952295
v 20.002314 -18.078861 -25.140642
v 44.174660 -21.965668 -4.073380
v 32.061775 -21.965668 -4.032701
v 44.174660 -17.153992 -4.073380
v 44.123764 -21.965672 -19.227770
v 44.123764 -17.153996 -19.227770
v 32.010887 -17.153996 -19.187098
v 32.061775 -17.153992 -4.032701
v 32.010887 -21.965672 -19.187098
v 44.245758 -19.032253 17.099201
v 32.132866 -19.032253 17.139874
v 44.245758 -14.220579 17.099201
v 44.194870 -19.032257 1.944810
v 32.081985 -19.032257 1.985489
v 44.194870 -14.220581 1.944810
v 32.081985 -14.220581 1.985489
v 32.132866 -14.220579 17.139874
v 41.331383 -12.559229 31.917257
v 35.146690 -12.559229 31.938023
v 41.331383 -10.102443 31.917257
v 41.305397 -12.559231 24.179613
v 35.120712 -12.559231 24.200384
v 41.305397 -10.102445 24.179613
v 35.120712 -10.102445 24.200384
v 35.146690 -10.102443 31.938023
v -2.222382 -20.712528 -35.337143
v -14.335277 -20.712528 -35.296463
v -2.222382 -15.900854 -35.337143
v -2.238541 -20.712532 -40.148796
v -14.351434 -20.712532 -40.108116
v -2.238541 -15.900854 -40.148796
v -14.351434 -15.900854 -40.108116
v -14.335277 -15.900854 -35.296463
v -17.467999 -20.712528 -24.831463
v -29.580893 -20.712528 -24.790791
v -17.467999 -15.900852 -24.831463
v -17.484156 -20.712528 -29.643118
v -29.597048 -20.712528 -29.602444
v -17.484156 -15.900852 -29.643118
v -29.597048 -15.900852 -29.602444
v -29.580893 -15.900852 -24.790791
v -34.825520 -20.712524 -3.582226
v -46.938408 -20.712524 -3.541547
v -34.825520 -15.900848 -3.582228
v -34.913864 -20.712528 -29.890553
v -47.026749 -20.712528 -29.849874
v -34.913864 -15.900852 -29.890553
v -47.026749 -15.900852 -29.849874
v -46.938408 -15.900848 -3.541549
v -34.778252 -16.268219 10.492829
v -46.891144 -16.268219 10.533509
v -34.778252 -11.456541 10.492829
v -34.866596 -16.268223 -15.815497
v -46.979488 -16.268223 -15.774817
v -34.866596 -11.456545 -15.815497
v -46.979488 -11.456545 -15.774817
v -46.891144 -11.456541 10.533509
v -34.738903 -11.934841 22.210375
v -46.851791 -11.934841 22.251047
v -34.738903 -7.123165 22.210375
v -34.827251 -11.934845 -4.097949
v -34.827251 -7.123169 -4.097950
v -46.940140 -7.123169 -4.057279
v -46.851791 -7.123165 22.251047
v -46.940140 -11.934845 -4.057277
v -21.037170 -7.426422 9.166553
v -20.972559 -7.426420 21.279339
v -21.037170 -2.614714 9.166551
v -47.345272 -7.426422 9.306877
v -47.280663 -7.426420 21.419657
v -47.345272 -2.614714 9.306875
v -47.280663 -2.614712 21.419657
v -20.972559 -2.614712 21.279339
v -2.039862 -17.696682 18.856066
v -14.152756 -17.696682 18.896738
v -2.039862 -12.885008 18.856066
v -2.056019 -17.696682 14.044403
v -14.168913 -17.696682 14.085082
v -2.056019 -12.885008 14.044403
v -14.168913 -12.885008 14.085082
v -14.152756 -12.885008 18.896738
v -6.603710 -18.682648 4.853131
v -9.684128 -18.682648 4.863473
v -6.603710 -16.038788 4.853131
v -6.609541 -18.682648 3.116978
v -6.609541 -16.038788 3.116978
v -9.689959 -16.038788 3.127326
v -9.684128 -16.038788 4.863473
v -9.689959 -18.682648 3.127327
v -6.623980 -18.682648 -5.870687
v -9.735876 -18.682648 -5.860237
v -6.623980 -16.038788 -5.870687
v -6.634010 -18.682648 -8.857502
v -9.745905 -18.682648 -8.847050
v -6.634010 -16.038788 -8.857502
v -9.745905 -16.038788 -8.847050
v -9.735876 -16.038788 -5.860237
v -5.902792 -20.712528 -20.343397
v -10.554247 -20.712528 -20.327770
v -5.902792 -15.900852 -20.343397
v -5.916258 -20.712528 -24.352806
v -10.567713 -20.712528 -24.337187
v -5.916258 -15.900852 -24.352806
v -10.567713 -15.900852 -24.337187
v -10.554247 -15.900852 -20.327770
v 0.766788 -13.100880 75.110809
v -11.346107 -13.100880 75.151497
v 0.766788 -8.289234 75.110809
v 0.678444 -13.100883 48.802479
v -11.434451 -13.100883 48.843166
v 0.678444 -8.289238 48.802479
v -11.434451 -8.289238 48.843166
v -11.346107 -8.289234 75.151497
v 1.689438 -22.725193 -35.388405
v 1.689438 -22.725197 -41.299240
v 1.689438 -17.433811 -35.388405
v 20.254919 -22.725193 -35.388405
v 20.254919 -22.725197 -41.299240
v 20.254919 -17.433811 -35.388405
v 20.254919 -17.433815 -41.299240
v 1.689438 -17.433815 -41.299240
v -16.104881 -12.901485 24.056837
v -19.216776 -12.901485 24.067289
v -16.104881 -10.257656 24.056833
v -16.114910 -12.901485 21.070024
v -19.226807 -12.901485 21.080477
v -16.114910 -10.257656 21.070021
v -19.226807 -10.257656 21.080473
v -19.216776 -10.257656 24.067286
v -19.683640 -8.864561 17.148760
v -19.683640 -8.864561 15.148761
v -19.683640 -6.864561 17.148760
v -17.683640 -8.864561 17.148760
v -17.683640 -8.864561 15.148761
v -17.683640 -6.864561 17.148760
v -17.683640 -6.864561 15.148761
v -19.683640 -6.864561 15.148761
v -19.683640 -6.764921 11.849636
v -19.683640 -6.764921 9.849636
v -19.683640 -4.764921 11.849634
v -17.683640 -6.764921 11.849636
v -17.683640 -6.764921 9.849636
v -17.683640 -4.764921 11.849634
v -17.683640 -4.764921 9.849634
v -19.683640 -4.764921 9.849634
v -52.877060 -11.500000 71.799011
v -52.877060 -6.500000 71.799011
v -52.877060 -11.500000 51.799011
v -52.877060 -6.500000 51.799011
v -22.877060 -11.500000 71.799011
v -22.877060 -6.500000 71.799011
v -22.877060 -11.500000 51.799011
v -22.877060 -6.500000 51.799011
v -26.986887 -6.500000 58.776600
v -26.986887 1.500000 58.776600
v -26.986887 -6.500000 51.776600
v -26.986887 1.500000 51.776600
v -24.986887 -6.500000 58.776600
v -24.986887 1.500000 58.776600
v -24.986887 -6.500000 51.776600
v -24.986887 1.500000 51.776600
v -26.986887 -6.500000 71.817825
v -26.986887 1.500000 71.817825
v -26.986887 -6.500000 64.817825
v -26.986887 1.500000 64.817825
v -24.986887 -6.500000 71.817825
v -24.986887 1.500000 71.817825
v -24.986887 -6.500000 64.817825
v -24.986887 1.500000 64.817825
v -26.902641 -6.500773 53.799999
v -26.902641 1.499227 53.799999
v -52.902641 -6.500773 53.799999
v -52.902641 1.499227 53.799999
v -26.902641 -6.500773 51.799999
v -26.902641 1.499227 51.799999
v -52.902641 -6.500773 51.799999
v -52.902641 1.499227 51.799999
v -26.902641 -6.500773 71.796921
v -26.902641 1.499227 71.796921
v -52.902641 -6.500773 71.796921
v -52.902641 1.499227 71.796921
v -26.902641 -6.500773 69.796921
v -26.902641 1.499227 69.796921
v -52.902641 -6.500773 69.796921
v -52.902641 1.499227 69.796921
vn 1.0000 -0.0000 -0.0000
vn -0.0000 -0.0000 -1.0000
vn -0.0000 1.0000 -0.0000
vn -1.0000 -0.0000 -0.0000
vn -0.0000 -0.0000 1.0000
vn -0.0000 -1.0000 -0.0000
vn 0.0034 -0.0000 1.0000
vn 1.0000 -0.0000 -0.0034
vn -0.0034 -0.0000 -1.0000
vn -1.0000 -0.0000 0.0034
vn 1.0000 -0.0000 -0.0053
vn -0.0053 -0.0000 -1.0000
vn -1.0000 -0.0000 0.0053
vn 0.0053 -0.0000 1.0000
vt 0.000000 0.000000
vt 0.375000 0.500000
vt 0.125000 0.750000
vt 0.125000 0.500000
vt 0.625000 0.000000
vt 0.375000 0.250000
vt 0.375000 0.000000
vt 0.625000 0.750000
vt 0.625000 1.000000
vt 0.375000 1.000000
vt 0.375000 0.750000
vt 0.625000 0.500000
vt 0.875000 0.750000
vt 0.875000 0.500000
vt 0.625000 0.250000
s 0
usemtl Material.002
f 1/1/1 8/1/1 2/1/1
f 4/1/2 2/1/2 5/1/2
f 4/1/3 3/1/3 1/1/3
f 6/1/4 5/1/4 7/1/4
f 3/1/5 7/1/5 8/1/5
f 2/1/6 7/1/6 5/1/6
f 1/1/1 3/1/1 8/1/1
f 4/1/2 1/1/2 2/1/2
f 4/1/3 6/1/3 3/1/3
f 6/1/4 4/1/4 5/1/4
f 3/1/5 6/1/5 7/1/5
f 2/1/6 8/1/6 7/1/6
f 13/2/6 9/3/6 10/4/6
f 11/5/7 10/6/7 9/7/7
f 14/8/8 11/9/8 9/10/8
f 13/2/6 12/11/6 9/3/6
f 14/8/8 9/10/8 12/11/8
f 15/12/3 11/13/3 14/8/3
f 15/12/9 14/8/9 12/11/9
f 15/12/3 16/14/3 11/13/3
f 15/12/9 12/11/9 13/2/9
f 16/15/10 15/12/10 13/2/10
f 11/5/7 16/15/7 10/6/7
f 16/15/10 13/2/10 10/6/10
f 19/5/7 18/6/7 17/7/7
f 18/4/6 20/11/6 17/3/6
f 21/8/8 19/9/8 17/10/8
f 21/8/8 17/10/8 20/11/8
f 23/14/3 19/13/3 21/8/3
f 22/12/9 21/8/9 20/11/9
f 23/14/3 21/8/3 22/12/3
f 19/5/7 23/15/7 18/6/7
f 23/15/10 24/2/10 18/6/10
f 23/15/10 22/12/10 24/2/10
f 18/4/6 24/2/6 20/11/6
f 22/12/9 20/11/9 24/2/9
f 27/5/7 26/6/7 25/7/7
f 29/2/6 25/3/6 26/4/6
f 30/8/8 27/9/8 25/10/8
f 29/2/6 28/11/6 25/3/6
f 30/8/8 25/10/8 28/11/8
f 31/12/3 27/13/3 30/8/3
f 31/12/9 30/8/9 28/11/9
f 31/12/3 32/14/3 27/13/3
f 31/12/9 28/11/9 29/2/9
f 32/15/10 31/12/10 29/2/10
f 27/5/7 32/15/7 26/6/7
f 32/15/10 29/2/10 26/6/10
f 35/5/7 34/6/7 33/7/7
f 37/2/6 33/3/6 34/4/6
f 38/8/8 35/9/8 33/10/8
f 37/2/6 36/11/6 33/3/6
f 38/8/8 33/10/8 36/11/8
f 40/14/3 35/13/3 38/8/3
f 39/12/9 38/8/9 36/11/9
f 40/14/3 38/8/3 39/12/3
f 35/5/7 40/15/7 34/6/7
f 40/15/10 37/2/10 34/6/10
f 40/15/10 39/12/10 37/2/10
f 39/12/9 36/11/9 37/2/9
f 43/5/7 42/6/7 41/7/7
f 45/2/6 41/3/6 42/4/6
f 46/8/8 43/9/8 41/10/8
f 45/2/6 44/11/6 41/3/6
f 46/8/8 41/10/8 44/11/8
f 47/12/3 43/13/3 46/8/3
f 47/12/9 46/8/9 44/11/9
f 47/12/3 48/14/3 43/13/3
f 47/12/9 44/11/9 45/2/9
f 48/15/10 47/12/10 45/2/10
f 43/5/7 48/15/7 42/6/7
f 48/15/10 45/2/10 42/6/10
f 51/5/7 50/6/7 49/7/7
f 53/2/6 49/3/6 50/4/6
f 54/8/8 51/9/8 49/10/8
f 53/2/6 52/11/6 49/3/6
f 54/8/8 49/10/8 52/11/8
f 55/12/3 51/13/3 54/8/3
f 55/12/9 54/8/9 52/11/9
f 55/12/3 56/14/3 51/13/3
f 55/12/9 52/11/9 53/2/9
f 56/15/10 55/12/10 53/2/10
f 51/5/7 56/15/7 50/6/7
f 56/15/10 53/2/10 50/6/10
f 59/5/7 58/6/7 57/7/7
f 58/4/6 60/11/6 57/3/6
f 61/8/8 59/9/8 57/10/8
f 61/8/8 57/10/8 60/11/8
f 63/14/3 59/13/3 61/8/3
f 62/12/9 61/8/9 60/11/9
f 63/14/3 61/8/3 62/12/3
f 59/5/7 63/15/7 58/6/7
f 63/15/10 64/2/10 58/6/10
f 63/15/10 62/12/10 64/2/10
f 58/4/6 64/2/6 60/11/6
f 62/12/9 60/11/9 64/2/9
f 67/5/7 66/6/7 65/7/7
f 69/2/6 65/3/6 66/4/6
f 70/8/8 67/9/8 65/10/8
f 69/2/6 68/11/6 65/3/6
f 70/8/8 65/10/8 68/11/8
f 71/12/3 67/13/3 70/8/3
f 71/12/9 70/8/9 68/11/9
f 71/12/3 72/14/3 67/13/3
f 71/12/9 68/11/9 69/2/9
f 72/15/10 71/12/10 69/2/10
f 67/5/7 72/15/7 66/6/7
f 72/15/10 69/2/10 66/6/10
f 75/5/7 74/6/7 73/7/7
f 77/2/6 73/3/6 74/4/6
f 78/8/8 75/9/8 73/10/8
f 77/2/6 76/11/6 73/3/6
f 78/8/8 73/10/8 76/11/8
f 79/12/3 75/13/3 78/8/3
f 79/12/9 78/8/9 76/11/9
f 79/12/3 80/14/3 75/13/3
f 79/12/9 76/11/9 77/2/9
f 80/15/10 79/12/10 77/2/10
f 75/5/7 80/15/7 74/6/7
f 80/15/10 77/2/10 74/6/10
f 83/5/7 82/6/7 81/7/7
f 85/2/6 81/3/6 82/4/6
f 86/8/8 83/9/8 81/10/8
f 85/2/6 84/11/6 81/3/6
f 86/8/8 81/10/8 84/11/8
f 87/12/3 83/13/3 86/8/3
f 87/12/9 86/8/9 84/11/9
f 87/12/3 88/14/3 83/13/3
f 87/12/9 84/11/9 85/2/9
f 88/15/10 87/12/10 85/2/10
f 83/5/7 88/15/7 82/6/7
f 88/15/10 85/2/10 82/6/10
f 91/5/7 90/6/7 89/7/7
f 93/2/6 89/3/6 90/4/6
f 94/8/8 91/9/8 89/10/8
f 93/2/6 92/11/6 89/3/6
f 94/8/8 89/10/8 92/11/8
f 95/12/3 91/13/3 94/8/3
f 95/12/9 94/8/9 92/11/9
f 95/12/3 96/14/3 91/13/3
f 95/12/9 92/11/9 93/2/9
f 96/15/10 95/12/10 93/2/10
f 91/5/7 96/15/7 90/6/7
f 96/15/10 93/2/10 90/6/10
f 99/5/7 98/6/7 97/7/7
f 101/2/6 97/3/6 98/4/6
f 102/8/8 99/9/8 97/10/8
f 101/2/6 100/11/6 97/3/6
f 102/8/8 97/10/8 100/11/8
f 103/12/3 99/13/3 102/8/3
f 103/12/9 102/8/9 100/11/9
f 103/12/3 104/14/3 99/13/3
f 103/12/9 100/11/9 101/2/9
f 104/15/10 103/12/10 101/2/10
f 99/5/7 104/15/7 98/6/7
f 104/15/10 101/2/10 98/6/10
f 107/5/7 106/6/7 105/7/7
f 109/2/6 105/3/6 106/4/6
f 110/8/8 107/9/8 105/10/8
f 109/2/6 108/11/6 105/3/6
f 110/8/8 105/10/8 108/11/8
f 111/12/3 107/13/3 110/8/3
f 111/12/9 110/8/9 108/11/9
f 111/12/3 112/14/3 107/13/3
f 111/12/9 108/11/9 109/2/9
f 112/15/10 111/12/10 109/2/10
f 107/5/7 112/15/7 106/6/7
f 112/15/10 109/2/10 106/6/10
f 115/5/7 114/6/7 113/7/7
f 114/4/6 116/11/6 113/3/6
f 117/8/8 115/9/8 113/10/8
f 117/8/8 113/10/8 116/11/8
f 119/14/3 115/13/3 117/8/3
f 118/12/9 117/8/9 116/11/9
f 119/14/3 117/8/3 118/12/3
f 115/5/7 119/15/7 114/6/7
f 119/15/10 120/2/10 114/6/10
f 119/15/10 118/12/10 120/2/10
f 114/4/6 120/2/6 116/11/6
f 118/12/9 116/11/9 120/2/9
f 123/5/11 122/6/11 121/7/11
f 125/2/6 121/3/6 122/4/6
f 126/8/12 123/9/12 121/10/12
f 125/2/6 124/11/6 121/3/6
f 126/8/12 121/10/12 124/11/12
f 127/12/3 123/13/3 126/8/3
f 127/12/13 126/8/13 124/11/13
f 127/12/3 128/14/3 123/13/3
f 127/12/13 124/11/13 125/2/13
f 128/15/14 127/12/14 125/2/14
f 123/5/11 128/15/11 122/6/11
f 128/15/14 125/2/14 122/6/14
f 131/5/7 130/6/7 129/7/7
f 133/2/6 129/3/6 130/4/6
f 134/8/8 131/9/8 129/10/8
f 133/2/6 132/11/6 129/3/6
f 134/8/8 129/10/8 132/11/8
f 135/12/3 131/13/3 134/8/3
f 135/12/9 134/8/9 132/11/9
f 135/12/3 136/14/3 131/13/3
f 135/12/9 132/11/9 133/2/9
f 136/15/10 135/12/10 133/2/10
f 131/5/7 136/15/7 130/6/7
f 136/15/10 133/2/10 130/6/10
f 139/5/7 138/6/7 137/7/7
f 138/4/6 140/11/6 137/3/6
f 141/8/8 139/9/8 137/10/8
f 141/8/8 137/10/8 140/11/8
f 143/14/3 139/13/3 141/8/3
f 142/12/9 141/8/9 140/11/9
f 143/14/3 141/8/3 142/12/3
f 139/5/7 143/15/7 138/6/7
f 143/15/10 144/2/10 138/6/10
f 143/15/10 142/12/10 144/2/10
f 138/4/6 144/2/6 140/11/6
f 142/12/9 140/11/9 144/2/9
f 147/5/7 146/6/7 145/7/7
f 149/2/6 145/3/6 146/4/6
f 150/8/8 147/9/8 145/10/8
f 149/2/6 148/11/6 145/3/6
f 150/8/8 145/10/8 148/11/8
f 151/12/3 147/13/3 150/8/3
f 151/12/9 150/8/9 148/11/9
f 151/12/3 152/14/3 147/13/3
f 151/12/9 148/11/9 149/2/9
f 152/15/10 151/12/10 149/2/10
f 147/5/7 152/15/7 146/6/7
f 152/15/10 149/2/10 146/6/10
f 155/5/7 154/6/7 153/7/7
f 157/2/6 153/3/6 154/4/6
f 158/8/8 155/9/8 153/10/8
f 157/2/6 156/11/6 153/3/6
f 158/8/8 153/10/8 156/11/8
f 159/12/3 155/13/3 158/8/3
f 159/12/9 158/8/9 156/11/9
f 159/12/3 160/14/3 155/13/3
f 159/12/9 156/11/9 157/2/9
f 160/15/10 159/12/10 157/2/10
f 155/5/7 160/15/7 154/6/7
f 160/15/10 157/2/10 154/6/10
f 163/5/7 162/6/7 161/7/7
f 165/2/6 161/3/6 162/4/6
f 166/8/8 163/9/8 161/10/8
f 165/2/6 164/11/6 161/3/6
f 166/8/8 161/10/8 164/11/8
f 167/12/3 163/13/3 166/8/3
f 167/12/9 166/8/9 164/11/9
f 167/12/3 168/14/3 163/13/3
f 167/12/9 164/11/9 165/2/9
f 168/15/10 167/12/10 165/2/10
f 163/5/7 168/15/7 162/6/7
f 168/15/10 165/2/10 162/6/10
f 173/2/6 169/3/6 170/4/6
f 171/5/4 170/6/4 169/7/4
f 174/8/5 171/9/5 169/10/5
f 173/2/6 172/11/6 169/3/6
f 174/8/5 169/10/5 172/11/5
f 176/14/3 171/13/3 174/8/3
f 175/12/1 174/8/1 172/11/1
f 176/14/3 174/8/3 175/12/3
f 171/5/4 176/15/4 170/6/4
f 176/15/2 173/2/2 170/6/2
f 176/15/2 175/12/2 173/2/2
f 175/12/1 172/11/1 173/2/1
f 202/1/4 203/1/4 201/1/4
f 204/1/2 207/1/2 203/1/2
f 207/1/1 206/1/1 205/1/1
f 206/1/5 201/1/5 205/1/5
f 207/1/6 201/1/6 203/1/6
f 204/1/3 206/1/3 208/1/3
f 210/1/4 211/1/4 209/1/4
f 212/1/2 215/1/2 211/1/2
f 215/1/1 214/1/1 213/1/1
f 214/1/5 209/1/5 213/1/5
f 215/1/6 209/1/6 211/1/6
f 212/1/3 214/1/3 216/1/3
f 218/1/4 219/1/4 217/1/4
f 220/1/2 223/1/2 219/1/2
f 223/1/1 222/1/1 221/1/1
f 222/1/5 217/1/5 221/1/5
f 223/1/6 217/1/6 219/1/6
f 220/1/3 222/1/3 224/1/3
f 226/1/5 227/1/5 225/1/5
f 228/1/4 231/1/4 227/1/4
f 232/1/2 229/1/2 231/1/2
f 230/1/1 225/1/1 229/1/1
f 231/1/6 225/1/6 227/1/6
f 228/1/3 230/1/3 232/1/3
f 234/1/5 235/1/5 233/1/5
f 236/1/4 239/1/4 235/1/4
f 240/1/2 237/1/2 239/1/2
f 238/1/1 233/1/1 237/1/1
f 239/1/6 233/1/6 235/1/6
f 236/1/3 238/1/3 240/1/3
f 202/1/4 204/1/4 203/1/4
f 204/1/2 208/1/2 207/1/2
f 207/1/1 208/1/1 206/1/1
f 206/1/5 202/1/5 201/1/5
f 207/1/6 205/1/6 201/1/6
f 204/1/3 202/1/3 206/1/3
f 210/1/4 212/1/4 211/1/4
f 212/1/2 216/1/2 215/1/2
f 215/1/1 216/1/1 214/1/1
f 214/1/5 210/1/5 209/1/5
f 215/1/6 213/1/6 209/1/6
f 212/1/3 210/1/3 214/1/3
f 218/1/4 220/1/4 219/1/4
f 220/1/2 224/1/2 223/1/2
f 223/1/1 224/1/1 222/1/1
f 222/1/5 218/1/5 217/1/5
f 223/1/6 221/1/6 217/1/6
f 220/1/3 218/1/3 222/1/3
f 226/1/5 228/1/5 227/1/5
f 228/1/4 232/1/4 231/1/4
f 232/1/2 230/1/2 229/1/2
f 230/1/1 226/1/1 225/1/1
f 231/1/6 229/1/6 225/1/6
f 228/1/3 226/1/3 230/1/3
f 234/1/5 236/1/5 235/1/5
f 236/1/4 240/1/4 239/1/4
f 240/1/2 238/1/2 237/1/2
f 238/1/1 234/1/1 233/1/1
f 239/1/6 237/1/6 233/1/6
f 236/1/3 234/1/3 238/1/3
usemtl Material.003
f 179/5/7 178/6/7 177/7/7
f 181/2/6 177/3/6 178/4/6
f 182/8/8 179/9/8 177/10/8
f 181/2/6 180/11/6 177/3/6
f 182/8/8 177/10/8 180/11/8
f 183/12/3 179/13/3 182/8/3
f 183/12/9 182/8/9 180/11/9
f 183/12/3 184/14/3 179/13/3
f 183/12/9 180/11/9 181/2/9
f 184/15/10 183/12/10 181/2/10
f 179/5/7 184/15/7 178/6/7
f 184/15/10 181/2/10 178/6/10
f 187/5/4 186/6/4 185/7/4
f 189/2/6 185/3/6 186/4/6
f 190/8/5 187/9/5 185/10/5
f 189/2/6 188/11/6 185/3/6
f 190/8/5 185/10/5 188/11/5
f 192/14/3 187/13/3 190/8/3
f 191/12/1 190/8/1 188/11/1
f 192/14/3 190/8/3 191/12/3
f 187/5/4 192/15/4 186/6/4
f 192/15/2 189/2/2 186/6/2
f 192/15/2 191/12/2 189/2/2
f 191/12/1 188/11/1 189/2/1
f 195/5/4 194/6/4 193/7/4
f 197/2/6 193/3/6 194/4/6
f 198/8/5 195/9/5 193/10/5
f 197/2/6 196/11/6 193/3/6
f 198/8/5 193/10/5 196/11/5
f 200/14/3 195/13/3 198/8/3
f 199/12/1 198/8/1 196/11/1
f 200/14/3 198/8/3 199/12/3
f 195/5/4 200/15/4 194/6/4
f 200/15/2 197/2/2 194/6/2
f 200/15/2 199/12/2 197/2/2
f 199/12/1 196/11/1 197/2/1
