# Blender 4.1.1
# www.blender.org
mtllib stage3.mtl
o 立方体.002
v 88.119049 -346.016388 -126.645241
v 88.119049 -348.016418 -126.645241
v 88.119049 -346.016388 126.645248
v -88.119049 -346.016388 -126.645241
v -88.119049 -348.016418 -126.645241
v -88.119049 -346.016388 126.645248
v -88.119049 -348.016418 126.645248
v 88.119049 -348.016418 126.645248
v 19.798834 -32.356232 47.287777
v 7.685942 -32.356232 47.328461
v 19.798834 -27.544556 47.287777
v 19.710489 -32.356232 20.979456
v 7.597597 -32.356232 21.020128
v 19.710489 -27.544556 20.979456
v 7.597597 -27.544556 21.020128
v 7.685942 -27.544556 47.328461
v 48.364075 -27.164337 -37.495758
v 24.559484 -27.164337 -37.415821
v 48.364075 -19.512085 -37.495758
v 48.279243 -27.164337 -62.757328
v 24.474653 -27.164337 -62.677391
v 48.279243 -19.512085 -62.757328
v 24.474653 -19.512085 -62.677391
v 24.559484 -19.512085 -37.415821
v 38.908775 -25.744080 -25.204136
v 34.097122 -25.744080 -25.187975
v 38.908775 -20.932373 -25.204136
v 38.892616 -25.744080 -30.015789
v 34.080963 -25.744080 -29.999628
v 38.892616 -20.932373 -30.015789
v 34.080963 -20.932373 -29.999628
v 34.097122 -20.932373 -25.187975
v 29.816771 -25.744080 -25.173603
v 25.005117 -25.744080 -25.157444
v 29.816771 -20.932373 -25.173603
v 29.800611 -25.744080 -29.985256
v 24.988958 -25.744080 -29.969097
v 29.800611 -20.932373 -29.985256
v 24.988958 -20.932373 -29.969097
v 25.005117 -20.932373 -25.157444
v 24.813971 -25.744080 -25.156807
v 20.002314 -25.744080 -25.140646
v 24.813971 -20.932373 -25.156807
v 24.797812 -25.744080 -29.968460
v 19.986158 -25.744080 -29.952299
v 24.797812 -20.932373 -29.968460
v 19.986158 -20.932373 -29.952299
v 20.002314 -20.932373 -25.140646
v 24.813971 -20.933655 -25.156807
v 20.002314 -20.933655 -25.140646
v 24.813971 -18.078857 -25.156807
v 24.797812 -20.933655 -29.968460
v 19.986158 -20.933655 -29.952299
v 24.797812 -18.078857 -29.968460
v 19.986158 -18.078857 -29.952299
v 20.002314 -18.078857 -25.140646
v 44.174660 -21.965668 -4.073383
v 32.061775 -21.965668 -4.032704
v 44.174660 -17.153992 -4.073383
v 44.123764 -21.965668 -19.227774
v 32.010887 -21.965668 -19.187101
v 44.123764 -17.153992 -19.227774
v 32.010887 -17.153992 -19.187101
v 32.061775 -17.153992 -4.032704
v 44.245758 -19.032257 17.099197
v 32.132866 -19.032257 17.139870
v 44.245758 -14.220581 17.099197
v 44.194870 -19.032257 1.944808
v 32.081985 -19.032257 1.985487
v 44.194870 -14.220581 1.944808
v 32.081985 -14.220581 1.985487
v 32.132866 -14.220581 17.139870
v 41.331383 -12.559235 31.917257
v 35.146690 -12.559235 31.938023
v 41.331383 -10.102448 31.917257
v 41.305397 -12.559235 24.179613
v 35.120712 -12.559235 24.200384
v 41.305397 -10.102448 24.179613
v 35.120712 -10.102448 24.200384
v 35.146690 -10.102448 31.938023
v -2.222382 -20.712524 -35.337143
v -14.335277 -20.712524 -35.296463
v -2.222382 -15.900848 -35.337143
v -2.238541 -20.712524 -40.148796
v -14.351434 -20.712524 -40.108116
v -2.238541 -15.900848 -40.148796
v -14.351434 -15.900848 -40.108116
v -14.335277 -15.900848 -35.296463
v -17.467999 -20.712524 -24.831467
v -29.580893 -20.712524 -24.790794
v -17.467999 -15.900848 -24.831467
v -17.484156 -20.712524 -29.643122
v -29.597048 -20.712524 -29.602448
v -17.484156 -15.900848 -29.643122
v -29.597048 -15.900848 -29.602448
v -29.580893 -15.900848 -24.790794
v -34.825520 -20.712524 -3.582230
v -46.938408 -20.712524 -3.541551
v -34.825520 -15.900848 -3.582230
v -34.913864 -20.712524 -29.890556
v -47.026749 -20.712524 -29.849878
v -34.913864 -15.900848 -29.890556
v -47.026749 -15.900848 -29.849878
v -46.938408 -15.900848 -3.541551
v -34.778252 -16.268219 10.492827
v -46.891144 -16.268219 10.533507
v -34.778252 -11.456543 10.492827
v -34.866596 -16.268219 -15.815499
v -46.979488 -16.268219 -15.774819
v -34.866596 -11.456543 -15.815499
v -46.979488 -11.456543 -15.774819
v -46.891144 -11.456543 10.533507
v -34.738903 -11.934845 22.210375
v -46.851791 -11.934845 22.251047
v -34.738903 -7.123169 22.210375
v -34.827251 -11.934845 -4.097951
v -46.940140 -11.934845 -4.057279
v -34.827251 -7.123169 -4.097951
v -46.940140 -7.123169 -4.057279
v -46.851791 -7.123169 22.251047
v -21.037170 -7.426422 9.166551
v -20.972559 -7.426422 21.279339
v -21.037170 -2.614716 9.166551
v -47.345272 -7.426422 9.306875
v -47.280663 -7.426422 21.419657
v -47.345272 -2.614716 9.306875
v -47.280663 -2.614716 21.419657
v -20.972559 -2.614716 21.279339
v -2.039862 -17.696686 18.856062
v -14.152756 -17.696686 18.896734
v -2.039862 -12.885010 18.856062
v -2.056019 -17.696686 14.044401
v -14.168913 -17.696686 14.085080
v -2.056019 -12.885010 14.044401
v -14.168913 -12.885010 14.085080
v -14.152756 -12.885010 18.896734
v -6.603710 -18.682648 4.853129
v -9.684128 -18.682648 4.863471
v -6.603710 -16.038788 4.853129
v -6.609541 -18.682648 3.116976
v -9.689959 -18.682648 3.127324
v -6.609541 -16.038788 3.116976
v -9.689959 -16.038788 3.127324
v -9.684128 -16.038788 4.863471
v -6.623980 -18.682648 -5.870691
v -9.735876 -18.682648 -5.860239
v -6.623980 -16.038788 -5.870691
v -6.634010 -18.682648 -8.857504
v -9.745905 -18.682648 -8.847052
v -6.634010 -16.038788 -8.857504
v -9.745905 -16.038788 -8.847052
v -9.735876 -16.038788 -5.860239
v -5.902792 -20.712524 -20.343401
v -10.554247 -20.712524 -20.327774
v -5.902792 -15.900848 -20.343401
v -5.916258 -20.712524 -24.352810
v -10.567713 -20.712524 -24.337191
v -5.916258 -15.900848 -24.352810
v -10.567713 -15.900848 -24.337191
v -10.554247 -15.900848 -20.327774
v 0.766788 -13.100891 75.110809
v -11.346107 -13.100891 75.151497
v 0.766788 -8.289246 75.110809
v 0.678444 -13.100891 48.802479
v -11.434451 -13.100891 48.843166
v 0.678444 -8.289246 48.802479
v -11.434451 -8.289246 48.843166
v -11.346107 -8.289246 75.151497
v -16.695808 -11.358337 75.178024
v -28.808701 -11.358337 75.218697
v -16.695808 -6.546692 75.178024
v -16.784153 -11.358337 48.869682
v -28.897045 -11.358337 48.910355
v -16.784153 -6.546692 48.869682
v -28.897045 -6.546692 48.910355
v -28.808701 -6.546692 75.218697
v 1.689438 -22.725189 -35.388405
v 1.689438 -22.725189 -41.299240
v 1.689438 -17.433807 -35.388405
v 20.254919 -22.725189 -35.388405
v 20.254919 -22.725189 -41.299240
v 20.254919 -17.433807 -35.388405
v 20.254919 -17.433807 -41.299240
v 1.689438 -17.433807 -41.299240
v -16.104881 -12.901489 24.056833
v -19.216776 -12.901489 24.067286
v -16.104881 -10.257660 24.056833
v -16.114910 -12.901489 21.070021
v -19.226807 -12.901489 21.080473
v -16.114910 -10.257660 21.070021
v -19.226807 -10.257660 21.080473
v -19.216776 -10.257660 24.067286
v -19.683640 -8.864563 17.148760
v -19.683640 -8.864563 15.148759
v -19.683640 -6.864563 17.148760
v -17.683640 -8.864563 17.148760
v -17.683640 -8.864563 15.148759
v -17.683640 -6.864563 17.148760
v -17.683640 -6.864563 15.148759
v -19.683640 -6.864563 15.148759
v -19.683640 -6.764923 11.849634
v -19.683640 -6.764923 9.849634
v -19.683640 -4.764923 11.849634
v -17.683640 -6.764923 11.849634
v -17.683640 -6.764923 9.849634
v -17.683640 -4.764923 11.849634
v -17.683640 -4.764923 9.849634
v -19.683640 -4.764923 9.849634
vn 1.0000 -0.0000 -0.0000
vn -0.0000 -0.0000 -1.0000
vn -0.0000 1.0000 -0.0000
vn -1.0000 -0.0000 -0.0000
vn -0.0000 -0.0000 1.0000
vn -0.0000 -1.0000 -0.0000
vn 0.0034 -0.0000 1.0000
vn 1.0000 -0.0000 -0.0034
vn -0.0034 -0.0000 -1.0000
vn -1.0000 -0.0000 0.0034
vn 1.0000 -0.0000 -0.0053
vn -0.0053 -0.0000 -1.0000
vn -1.0000 -0.0000 0.0053
vn 0.0053 -0.0000 1.0000
vt 0.000000 0.000000
vt 0.375000 0.000000
vt 0.625000 0.000000
vt 0.625000 0.250000
vt 0.375000 0.250000
vt 0.125000 0.500000
vt 0.375000 0.500000
vt 0.375000 0.750000
vt 0.125000 0.750000
vt 0.625000 0.750000
vt 0.625000 1.000000
vt 0.375000 1.000000
vt 0.625000 0.500000
vt 0.875000 0.500000
vt 0.875000 0.750000
s 0
usemtl Material
f 2/1/1 1/1/1 3/1/1 8/1/1
f 5/1/2 4/1/2 1/1/2 2/1/2
f 1/1/3 4/1/3 6/1/3 3/1/3
f 7/1/4 6/1/4 4/1/4 5/1/4
f 8/1/5 3/1/5 6/1/5 7/1/5
f 5/1/6 2/1/6 8/1/6 7/1/6
f 9/2/7 11/3/7 16/4/7 10/5/7
f 10/6/6 13/7/6 12/8/6 9/9/6
f 12/8/8 14/10/8 11/11/8 9/12/8
f 13/7/9 15/13/9 14/10/9 12/8/9
f 15/13/3 16/14/3 11/15/3 14/10/3
f 10/5/10 16/4/10 15/13/10 13/7/10
f 18/6/6 21/7/6 20/8/6 17/9/6
f 17/2/7 19/3/7 24/4/7 18/5/7
f 20/8/8 22/10/8 19/11/8 17/12/8
f 21/7/9 23/13/9 22/10/9 20/8/9
f 23/13/3 24/14/3 19/15/3 22/10/3
f 18/5/10 24/4/10 23/13/10 21/7/10
f 26/6/6 29/7/6 28/8/6 25/9/6
f 25/2/7 27/3/7 32/4/7 26/5/7
f 28/8/8 30/10/8 27/11/8 25/12/8
f 29/7/9 31/13/9 30/10/9 28/8/9
f 31/13/3 32/14/3 27/15/3 30/10/3
f 26/5/10 32/4/10 31/13/10 29/7/10
f 34/6/6 37/7/6 36/8/6 33/9/6
f 33/2/7 35/3/7 40/4/7 34/5/7
f 36/8/8 38/10/8 35/11/8 33/12/8
f 37/7/9 39/13/9 38/10/9 36/8/9
f 39/13/3 40/14/3 35/15/3 38/10/3
f 34/5/10 40/4/10 39/13/10 37/7/10
f 42/6/6 45/7/6 44/8/6 41/9/6
f 41/2/7 43/3/7 48/4/7 42/5/7
f 44/8/8 46/10/8 43/11/8 41/12/8
f 45/7/9 47/13/9 46/10/9 44/8/9
f 47/13/3 48/14/3 43/15/3 46/10/3
f 42/5/10 48/4/10 47/13/10 45/7/10
f 50/6/6 53/7/6 52/8/6 49/9/6
f 49/2/7 51/3/7 56/4/7 50/5/7
f 52/8/8 54/10/8 51/11/8 49/12/8
f 53/7/9 55/13/9 54/10/9 52/8/9
f 55/13/3 56/14/3 51/15/3 54/10/3
f 50/5/10 56/4/10 55/13/10 53/7/10
f 58/6/6 61/7/6 60/8/6 57/9/6
f 57/2/7 59/3/7 64/4/7 58/5/7
f 60/8/8 62/10/8 59/11/8 57/12/8
f 61/7/9 63/13/9 62/10/9 60/8/9
f 63/13/3 64/14/3 59/15/3 62/10/3
f 58/5/10 64/4/10 63/13/10 61/7/10
f 66/6/6 69/7/6 68/8/6 65/9/6
f 65/2/7 67/3/7 72/4/7 66/5/7
f 68/8/8 70/10/8 67/11/8 65/12/8
f 69/7/9 71/13/9 70/10/9 68/8/9
f 71/13/3 72/14/3 67/15/3 70/10/3
f 66/5/10 72/4/10 71/13/10 69/7/10
f 74/6/6 77/7/6 76/8/6 73/9/6
f 73/2/7 75/3/7 80/4/7 74/5/7
f 76/8/8 78/10/8 75/11/8 73/12/8
f 77/7/9 79/13/9 78/10/9 76/8/9
f 79/13/3 80/14/3 75/15/3 78/10/3
f 74/5/10 80/4/10 79/13/10 77/7/10
f 82/6/6 85/7/6 84/8/6 81/9/6
f 81/2/7 83/3/7 88/4/7 82/5/7
f 84/8/8 86/10/8 83/11/8 81/12/8
f 85/7/9 87/13/9 86/10/9 84/8/9
f 87/13/3 88/14/3 83/15/3 86/10/3
f 82/5/10 88/4/10 87/13/10 85/7/10
f 90/6/6 93/7/6 92/8/6 89/9/6
f 89/2/7 91/3/7 96/4/7 90/5/7
f 92/8/8 94/10/8 91/11/8 89/12/8
f 93/7/9 95/13/9 94/10/9 92/8/9
f 95/13/3 96/14/3 91/15/3 94/10/3
f 90/5/10 96/4/10 95/13/10 93/7/10
f 98/6/6 101/7/6 100/8/6 97/9/6
f 97/2/7 99/3/7 104/4/7 98/5/7
f 100/8/8 102/10/8 99/11/8 97/12/8
f 101/7/9 103/13/9 102/10/9 100/8/9
f 103/13/3 104/14/3 99/15/3 102/10/3
f 98/5/10 104/4/10 103/13/10 101/7/10
f 106/6/6 109/7/6 108/8/6 105/9/6
f 105/2/7 107/3/7 112/4/7 106/5/7
f 108/8/8 110/10/8 107/11/8 105/12/8
f 109/7/9 111/13/9 110/10/9 108/8/9
f 111/13/3 112/14/3 107/15/3 110/10/3
f 106/5/10 112/4/10 111/13/10 109/7/10
f 114/6/6 117/7/6 116/8/6 113/9/6
f 113/2/7 115/3/7 120/4/7 114/5/7
f 116/8/8 118/10/8 115/11/8 113/12/8
f 117/7/9 119/13/9 118/10/9 116/8/9
f 119/13/3 120/14/3 115/15/3 118/10/3
f 114/5/10 120/4/10 119/13/10 117/7/10
f 122/6/6 125/7/6 124/8/6 121/9/6
f 121/2/11 123/3/11 128/4/11 122/5/11
f 124/8/12 126/10/12 123/11/12 121/12/12
f 125/7/13 127/13/13 126/10/13 124/8/13
f 127/13/3 128/14/3 123/15/3 126/10/3
f 122/5/14 128/4/14 127/13/14 125/7/14
f 130/6/6 133/7/6 132/8/6 129/9/6
f 129/2/7 131/3/7 136/4/7 130/5/7
f 132/8/8 134/10/8 131/11/8 129/12/8
f 133/7/9 135/13/9 134/10/9 132/8/9
f 135/13/3 136/14/3 131/15/3 134/10/3
f 130/5/10 136/4/10 135/13/10 133/7/10
f 138/6/6 141/7/6 140/8/6 137/9/6
f 137/2/7 139/3/7 144/4/7 138/5/7
f 140/8/8 142/10/8 139/11/8 137/12/8
f 141/7/9 143/13/9 142/10/9 140/8/9
f 143/13/3 144/14/3 139/15/3 142/10/3
f 138/5/10 144/4/10 143/13/10 141/7/10
f 146/6/6 149/7/6 148/8/6 145/9/6
f 145/2/7 147/3/7 152/4/7 146/5/7
f 148/8/8 150/10/8 147/11/8 145/12/8
f 149/7/9 151/13/9 150/10/9 148/8/9
f 151/13/3 152/14/3 147/15/3 150/10/3
f 146/5/10 152/4/10 151/13/10 149/7/10
f 154/6/6 157/7/6 156/8/6 153/9/6
f 153/2/7 155/3/7 160/4/7 154/5/7
f 156/8/8 158/10/8 155/11/8 153/12/8
f 157/7/9 159/13/9 158/10/9 156/8/9
f 159/13/3 160/14/3 155/15/3 158/10/3
f 154/5/10 160/4/10 159/13/10 157/7/10
f 162/6/6 165/7/6 164/8/6 161/9/6
f 161/2/7 163/3/7 168/4/7 162/5/7
f 164/8/8 166/10/8 163/11/8 161/12/8
f 165/7/9 167/13/9 166/10/9 164/8/9
f 167/13/3 168/14/3 163/15/3 166/10/3
f 162/5/10 168/4/10 167/13/10 165/7/10
f 170/6/6 173/7/6 172/8/6 169/9/6
f 169/2/7 171/3/7 176/4/7 170/5/7
f 172/8/8 174/10/8 171/11/8 169/12/8
f 173/7/9 175/13/9 174/10/9 172/8/9
f 175/13/3 176/14/3 171/15/3 174/10/3
f 170/5/10 176/4/10 175/13/10 173/7/10
f 177/2/4 179/3/4 184/4/4 178/5/4
f 178/6/6 181/7/6 180/8/6 177/9/6
f 180/8/5 182/10/5 179/11/5 177/12/5
f 181/7/1 183/13/1 182/10/1 180/8/1
f 183/13/3 184/14/3 179/15/3 182/10/3
f 178/5/2 184/4/2 183/13/2 181/7/2
usemtl Material.001
f 186/6/6 189/7/6 188/8/6 185/9/6
f 185/2/7 187/3/7 192/4/7 186/5/7
f 188/8/8 190/10/8 187/11/8 185/12/8
f 189/7/9 191/13/9 190/10/9 188/8/9
f 191/13/3 192/14/3 187/15/3 190/10/3
f 186/5/10 192/4/10 191/13/10 189/7/10
f 194/6/6 197/7/6 196/8/6 193/9/6
f 193/2/4 195/3/4 200/4/4 194/5/4
f 196/8/5 198/10/5 195/11/5 193/12/5
f 197/7/1 199/13/1 198/10/1 196/8/1
f 199/13/3 200/14/3 195/15/3 198/10/3
f 194/5/2 200/4/2 199/13/2 197/7/2
f 202/6/6 205/7/6 204/8/6 201/9/6
f 201/2/4 203/3/4 208/4/4 202/5/4
f 204/8/5 206/10/5 203/11/5 201/12/5
f 205/7/1 207/13/1 206/10/1 204/8/1
f 207/13/3 208/14/3 203/15/3 206/10/3
f 202/5/2 208/4/2 207/13/2 205/7/2
