# Blender 4.1.1
# www.blender.org
mtllib stage5.mtl
o 立方体
v 3.000000 0.181011 -3.000000
v 3.000000 0.581011 -3.000000
v 3.000000 0.181011 3.000000
v 3.000000 0.581011 3.000000
v -3.000000 0.181011 -3.000000
v -3.000000 0.581011 -3.000000
v -3.000000 0.181011 3.000000
v -3.000000 0.581011 3.000000
v -12.999998 -9.630792 96.875992
v -12.999998 15.369205 96.875992
v -12.999998 -9.630780 150.792816
v -12.999998 15.369217 150.792816
v -76.000000 -9.630792 96.875992
v -76.000000 15.369205 96.875992
v -76.000000 -9.630780 150.792816
v -76.000000 15.369217 150.792816
v 24.496185 -10.182482 -6.865658
v 24.496185 -0.182483 -6.865661
v 24.496185 -10.182470 33.134338
v 24.496185 -0.182472 33.134338
v -25.503815 -10.182482 -6.865658
v -25.503815 -0.182483 -6.865661
v -25.503815 -10.182470 33.134338
v -25.503815 -0.182472 33.134338
v 6.866302 -30.999977 97.834236
v 6.866302 -28.999977 97.834236
v 6.866302 -30.999971 117.834229
v 6.866302 -28.999971 117.834229
v -13.133695 -30.999977 97.834236
v -13.133695 -28.999977 97.834236
v -13.133695 -30.999971 117.834229
v -13.133695 -28.999971 117.834229
v -9.056591 14.442320 146.594482
v -9.056591 39.442322 146.594482
v -9.056591 14.442320 150.741928
v -9.056591 39.442322 150.741928
v -76.056587 14.442320 146.594482
v -76.056587 39.442322 146.594482
v -76.056587 14.442320 150.741928
v -76.056587 39.442322 150.741928
v 76.180153 15.107860 147.052002
v 76.180153 40.107861 147.052002
v 76.180153 15.107860 151.199448
v 76.180153 40.107861 151.199448
v 3.180153 15.107860 147.052002
v 3.180153 40.107861 147.052002
v 3.180153 15.107860 151.199448
v 3.180153 40.107861 151.199448
v 76.000000 -9.630792 96.875992
v 76.000000 15.369205 96.875992
v 76.000000 -9.630780 150.792816
v 76.000000 15.369217 150.792816
v 6.000000 -9.630792 96.875992
v 6.000000 15.369205 96.875992
v 6.000000 -9.630780 150.792816
v 6.000000 15.369217 150.792816
v 24.496185 -9.678867 59.134335
v 24.496185 0.321130 59.134335
v 24.496185 -9.678859 99.134331
v 24.496185 0.321139 99.134331
v -25.503815 -9.678867 59.134335
v -25.503815 0.321130 59.134335
v -25.503815 -9.678859 99.134331
v -25.503815 0.321139 99.134331
v 24.496185 -8.829680 95.134331
v 24.496185 15.170318 95.134331
v 24.496185 -8.829680 99.134331
v 24.496185 15.170318 99.134331
v -25.503815 -8.829680 95.134331
v -25.503815 15.170318 95.134331
v -25.503815 -8.829680 99.134331
v -25.503815 15.170318 99.134331
v 9.017594 -9.415818 117.411026
v 9.017594 15.264183 117.411026
v 9.017594 -9.415801 193.411041
v 9.017594 15.264199 193.411041
v -14.982403 -9.415818 117.411026
v -14.982403 15.264183 117.411026
v -14.982403 -9.415801 193.411041
v -14.982403 15.264199 193.411041
v 71.870529 15.357489 116.252930
v 71.862549 20.339651 116.674866
v 71.655769 15.189347 118.234245
v 71.647789 20.171509 118.656181
v 25.759167 15.264499 116.454559
v 25.759167 20.264502 116.454559
v 25.759167 15.264499 118.454559
v 25.759167 20.264502 118.454559
v 75.992020 15.283990 116.465172
v 75.992020 20.283991 116.465172
v 75.992020 15.283998 148.465164
v 75.992020 20.283997 148.465164
v 71.992020 15.283990 116.465172
v 71.992020 20.283991 116.465172
v 71.992020 15.283998 148.465164
v 71.992020 20.283997 148.465164
v 54.820091 15.070225 118.022751
v 54.820091 18.070227 118.022751
v 54.820091 15.070228 120.022736
v 54.820091 18.070227 120.022736
v 40.820087 15.070225 118.022751
v 40.820087 18.070227 118.022751
v 40.820087 15.070228 120.022736
v 40.820087 18.070227 120.022736
v 35.387791 15.386430 147.971390
v 35.387791 17.386431 147.971390
v 35.387791 15.386423 117.369377
v 35.387791 17.386425 117.369377
v 37.387791 15.386430 147.971390
v 37.387791 17.386431 147.971390
v 37.387791 15.386423 117.369377
v 37.387791 17.386425 117.369377
vn 1.0000 -0.0000 -0.0000
vn -0.0000 -0.0000 1.0000
vn -1.0000 -0.0000 -0.0000
vn -0.0000 -0.0000 -1.0000
vn -0.0000 -1.0000 -0.0000
vn -0.0000 1.0000 -0.0000
vn 0.0046 -0.0844 0.9964
vn -0.0044 -0.0000 -1.0000
vn -0.0020 -0.9964 -0.0848
vn 0.0020 1.0000 -0.0000
vn -0.0044 -0.0000 1.0000
vn 0.0046 0.0844 -0.9964
vn 0.0020 -1.0000 -0.0000
vn -0.0020 0.9964 0.0843
vn 0.6243 -0.7812 0.0023
vn -0.4740 0.1078 -0.8739
vn -0.6239 0.7815 -0.0022
vn 0.4786 -0.1074 0.8715
vt 0.625000 0.000000
vt 0.375000 0.250000
vt 0.375000 0.000000
vt 0.625000 0.250000
vt 0.375000 0.500000
vt 0.625000 0.500000
vt 0.375000 0.750000
vt 0.625000 0.750000
vt 0.375000 1.000000
vt 0.125000 0.750000
vt 0.125000 0.500000
vt 0.875000 0.500000
vt 0.625000 1.000000
vt 0.875000 0.750000
s 0
usemtl マテリアル.009
f 2/1/1 3/2/1 1/3/1
f 4/4/2 7/5/2 3/2/2
f 8/6/3 5/7/3 7/5/3
f 6/8/4 1/9/4 5/7/4
f 7/5/5 1/10/5 3/11/5
f 4/12/6 6/8/6 8/6/6
f 10/1/1 11/2/1 9/3/1
f 12/4/2 15/5/2 11/2/2
f 16/6/3 13/7/3 15/5/3
f 14/8/4 9/9/4 13/7/4
f 15/5/5 9/10/5 11/11/5
f 12/12/6 14/8/6 16/6/6
f 18/1/1 19/2/1 17/3/1
f 20/4/2 23/5/2 19/2/2
f 24/6/3 21/7/3 23/5/3
f 22/8/4 17/9/4 21/7/4
f 23/5/5 17/10/5 19/11/5
f 20/12/6 22/8/6 24/6/6
f 26/1/1 27/2/1 25/3/1
f 28/4/2 31/5/2 27/2/2
f 32/6/3 29/7/3 31/5/3
f 30/8/4 25/9/4 29/7/4
f 31/5/5 25/10/5 27/11/5
f 28/12/6 30/8/6 32/6/6
f 34/1/1 35/2/1 33/3/1
f 36/4/2 39/5/2 35/2/2
f 40/6/3 37/7/3 39/5/3
f 38/8/4 33/9/4 37/7/4
f 39/5/5 33/10/5 35/11/5
f 36/12/6 38/8/6 40/6/6
f 42/1/1 43/2/1 41/3/1
f 44/4/2 47/5/2 43/2/2
f 48/6/3 45/7/3 47/5/3
f 46/8/4 41/9/4 45/7/4
f 47/5/5 41/10/5 43/11/5
f 44/12/6 46/8/6 48/6/6
f 50/1/1 51/2/1 49/3/1
f 52/4/2 55/5/2 51/2/2
f 56/6/3 53/7/3 55/5/3
f 54/8/4 49/9/4 53/7/4
f 55/5/5 49/10/5 51/11/5
f 52/12/6 54/8/6 56/6/6
f 58/1/1 59/2/1 57/3/1
f 60/4/2 63/5/2 59/2/2
f 64/6/3 61/7/3 63/5/3
f 62/8/4 57/9/4 61/7/4
f 63/5/5 57/10/5 59/11/5
f 60/12/6 62/8/6 64/6/6
f 66/1/1 67/2/1 65/3/1
f 68/4/2 71/5/2 67/2/2
f 72/6/3 69/7/3 71/5/3
f 70/8/4 65/9/4 69/7/4
f 71/5/5 65/10/5 67/11/5
f 68/12/6 70/8/6 72/6/6
f 74/1/1 75/2/1 73/3/1
f 76/4/2 79/5/2 75/2/2
f 80/6/3 77/7/3 79/5/3
f 78/8/4 73/9/4 77/7/4
f 79/5/5 73/10/5 75/11/5
f 76/12/6 78/8/6 80/6/6
f 84/4/7 87/5/7 83/2/7
f 88/6/3 85/7/3 87/5/3
f 86/8/8 81/9/8 85/7/8
f 87/5/9 81/10/9 83/11/9
f 84/12/10 86/8/10 88/6/10
f 90/1/1 91/2/1 89/3/1
f 92/4/2 95/5/2 91/2/2
f 96/6/3 93/7/3 95/5/3
f 94/8/4 89/9/4 93/7/4
f 95/5/5 89/10/5 91/11/5
f 92/12/6 94/8/6 96/6/6
f 98/1/1 99/2/1 97/3/1
f 100/4/2 103/5/2 99/2/2
f 104/6/3 101/7/3 103/5/3
f 102/8/4 97/9/4 101/7/4
f 103/5/5 97/10/5 99/11/5
f 100/12/6 102/8/6 104/6/6
f 2/1/1 4/4/1 3/2/1
f 4/4/2 8/6/2 7/5/2
f 8/6/3 6/8/3 5/7/3
f 6/8/4 2/13/4 1/9/4
f 7/5/5 5/7/5 1/10/5
f 4/12/6 2/14/6 6/8/6
f 10/1/1 12/4/1 11/2/1
f 12/4/2 16/6/2 15/5/2
f 16/6/3 14/8/3 13/7/3
f 14/8/4 10/13/4 9/9/4
f 15/5/5 13/7/5 9/10/5
f 12/12/6 10/14/6 14/8/6
f 18/1/1 20/4/1 19/2/1
f 20/4/2 24/6/2 23/5/2
f 24/6/3 22/8/3 21/7/3
f 22/8/4 18/13/4 17/9/4
f 23/5/5 21/7/5 17/10/5
f 20/12/6 18/14/6 22/8/6
f 26/1/1 28/4/1 27/2/1
f 28/4/2 32/6/2 31/5/2
f 32/6/3 30/8/3 29/7/3
f 30/8/4 26/13/4 25/9/4
f 31/5/5 29/7/5 25/10/5
f 28/12/6 26/14/6 30/8/6
f 34/1/1 36/4/1 35/2/1
f 36/4/2 40/6/2 39/5/2
f 40/6/3 38/8/3 37/7/3
f 38/8/4 34/13/4 33/9/4
f 39/5/5 37/7/5 33/10/5
f 36/12/6 34/14/6 38/8/6
f 42/1/1 44/4/1 43/2/1
f 44/4/2 48/6/2 47/5/2
f 48/6/3 46/8/3 45/7/3
f 46/8/4 42/13/4 41/9/4
f 47/5/5 45/7/5 41/10/5
f 44/12/6 42/14/6 46/8/6
f 50/1/1 52/4/1 51/2/1
f 52/4/2 56/6/2 55/5/2
f 56/6/3 54/8/3 53/7/3
f 54/8/4 50/13/4 49/9/4
f 55/5/5 53/7/5 49/10/5
f 52/12/6 50/14/6 54/8/6
f 58/1/1 60/4/1 59/2/1
f 60/4/2 64/6/2 63/5/2
f 64/6/3 62/8/3 61/7/3
f 62/8/4 58/13/4 57/9/4
f 63/5/5 61/7/5 57/10/5
f 60/12/6 58/14/6 62/8/6
f 66/1/1 68/4/1 67/2/1
f 68/4/2 72/6/2 71/5/2
f 72/6/3 70/8/3 69/7/3
f 70/8/4 66/13/4 65/9/4
f 71/5/5 69/7/5 65/10/5
f 68/12/6 66/14/6 70/8/6
f 74/1/1 76/4/1 75/2/1
f 76/4/2 80/6/2 79/5/2
f 80/6/3 78/8/3 77/7/3
f 78/8/4 74/13/4 73/9/4
f 79/5/5 77/7/5 73/10/5
f 76/12/6 74/14/6 78/8/6
f 84/4/11 88/6/11 87/5/11
f 88/6/3 86/8/3 85/7/3
f 86/8/12 82/13/12 81/9/12
f 87/5/13 85/7/13 81/10/13
f 84/12/14 82/14/14 86/8/14
f 90/1/1 92/4/1 91/2/1
f 92/4/2 96/6/2 95/5/2
f 96/6/3 94/8/3 93/7/3
f 94/8/4 90/13/4 89/9/4
f 95/5/5 93/7/5 89/10/5
f 92/12/6 90/14/6 94/8/6
f 98/1/1 100/4/1 99/2/1
f 100/4/2 104/6/2 103/5/2
f 104/6/3 102/8/3 101/7/3
f 102/8/4 98/13/4 97/9/4
f 103/5/5 101/7/5 97/10/5
f 100/12/6 98/14/6 102/8/6
f 105/3/3 108/4/3 107/2/3
f 108/4/4 111/5/4 107/2/4
f 112/6/1 109/7/1 111/5/1
f 110/8/2 105/9/2 109/7/2
f 111/5/5 105/10/5 107/11/5
f 108/12/6 110/8/6 112/6/6
f 105/3/3 106/1/3 108/4/3
f 108/4/4 112/6/4 111/5/4
f 112/6/1 110/8/1 109/7/1
f 110/8/2 106/13/2 105/9/2
f 111/5/5 109/7/5 105/10/5
f 108/12/6 106/14/6 110/8/6
f 82/14/15 84/4/16 83/11/17 81/9/18
