# Blender 4.1.1
# www.blender.org
mtllib stage5.mtl
o ステージ本体.005
v 9.866302 -30.999962 -10.203297
v 9.866302 -28.999962 -10.203297
v -10.133695 -30.999962 -10.203297
v 9.866302 -30.999954 9.796696
v -10.133695 -28.999962 -10.203297
v -10.133695 -30.999954 9.796696
v -10.133695 -28.999954 9.796696
v 9.866302 -28.999954 9.796696
v -10.026745 -9.630776 -11.161542
v -10.026745 15.369221 -11.161544
v -10.026745 -9.630757 42.755283
v -73.026749 -9.630776 -11.161542
v -73.026749 15.369221 -11.161544
v -73.026749 -9.630757 42.755283
v -73.026749 15.369240 42.755283
v -10.026745 15.369240 42.755283
v -71.232201 17.025652 -11.037536
v -71.232201 15.025652 -11.037536
v -71.232201 17.025652 38.962467
v -73.232201 17.025652 -11.037536
v -73.232201 15.025652 -11.037536
v -73.232201 17.025652 38.962467
v -73.232201 15.025652 38.962467
v -71.232201 15.025652 38.962467
v 3.000000 -0.213337 -111.037537
v 3.000000 1.026662 -111.037537
v 3.000000 -0.213336 -105.037537
v -3.000000 -0.213337 -111.037537
v -3.000000 1.026662 -111.037537
v -3.000000 -0.213336 -105.037537
v -3.000000 1.026663 -105.037537
v 3.000000 1.026663 -105.037537
v 20.867374 -10.182483 -114.903191
v 20.867374 -0.182484 -114.903198
v 20.867374 -10.182465 -74.903198
v -19.953869 -10.182483 -114.903191
v -19.953869 -0.182484 -114.903198
v -19.953869 -10.182465 -74.903198
v -19.953869 -0.182467 -74.903198
v 20.867374 -0.182467 -74.903198
v -3.146520 14.442343 38.556950
v -3.146520 39.442345 38.556946
v -3.146520 14.442343 42.704395
v -73.083336 14.442343 38.556950
v -73.083336 39.442345 38.556946
v -73.083336 14.442343 42.704395
v -73.083336 39.442345 42.704391
v -3.146520 39.442345 42.704391
v 79.153404 15.107882 38.550137
v 79.153404 40.107883 38.550133
v 79.153404 15.107882 42.697582
v 3.216588 15.107882 38.550137
v 3.216588 15.107882 42.697582
v 3.216588 40.107883 38.550133
v 3.216588 40.107883 42.697578
v 79.153404 40.107883 42.697578
v 78.973251 -9.630776 -11.161542
v 78.973251 15.369221 -11.161544
v 78.973251 -9.630757 42.290951
v 8.973253 -9.630776 -11.161542
v 8.973253 15.369221 -11.161544
v 8.973253 -9.630757 42.290951
v 8.973253 15.369240 42.290951
v 78.973251 15.369240 42.290951
v 20.638735 -9.678858 -48.903198
v 20.638735 0.321139 -48.903198
v 20.638735 -9.678843 -8.903203
v -19.969048 -9.678858 -48.903198
v -19.969048 0.321139 -48.903198
v -19.969048 -9.678843 -8.903203
v -19.969048 0.321154 -8.903204
v 20.638735 0.321154 -8.903204
v 27.469439 -8.829665 -12.903203
v 27.469439 15.170333 -12.903205
v 27.469439 -8.829665 -8.903203
v -22.530561 -8.829665 -12.903203
v -22.530561 15.170333 -12.903205
v -22.530561 -8.829665 -8.903203
v -22.530561 15.170333 -8.903205
v 27.469439 15.170333 -8.903205
v 11.990847 -9.415800 9.373492
v 11.990847 15.264201 9.373490
v 11.990847 -9.415771 85.373505
v -12.009150 -9.415800 9.373492
v -12.009150 15.264201 9.373490
v -12.009150 -9.415771 85.373505
v -12.009150 15.264229 85.373505
v 11.990847 15.264229 85.373505
v 77.103432 15.273682 8.464089
v 76.766464 20.262037 8.411423
v 76.698357 15.266996 10.422616
v 28.732420 15.264517 8.417024
v 28.732420 20.264519 8.417023
v 28.732420 15.264517 10.417024
v 28.732420 20.264519 10.417023
v 76.361389 20.255352 10.369949
v 78.965271 15.284007 8.427636
v 78.965271 20.284008 8.427635
v 78.965271 15.284020 39.963299
v 74.965271 15.284007 8.427636
v 74.965271 20.284008 8.427635
v 74.965271 15.284020 39.963299
v 74.965271 20.284019 39.963299
v 78.965271 20.284019 39.963299
v 57.793343 15.070243 9.985215
v 57.793343 18.070244 9.985215
v 57.793343 15.070247 11.985200
v 43.793343 15.070243 9.985215
v 43.793343 18.070244 9.985215
v 43.793343 15.070247 11.985200
v 43.793343 18.070244 11.985200
v 57.793343 18.070244 11.985200
v 38.361046 15.386453 39.469524
v 38.361046 17.386454 39.469524
v 38.361046 15.386441 9.331841
v 38.361046 17.386442 9.331841
v 40.361046 15.386453 39.469524
v 40.361046 15.386441 9.331841
v 40.361046 17.386454 39.469524
v 40.361046 17.386442 9.331841
vn 1.0000 -0.0000 -0.0000
vn -0.0000 -0.0000 -1.0000
vn -0.0000 -1.0000 -0.0000
vn -1.0000 -0.0000 -0.0000
vn -0.0000 -0.0000 1.0000
vn -0.0000 1.0000 -0.0000
vn -0.0001 -0.0106 -0.9999
vn -0.3881 -0.0016 -0.9216
vn 0.3929 0.0019 0.9196
vn 0.6645 -0.7349 0.1359
vn 0.0001 -1.0000 -0.0034
vn 0.0010 -0.0000 -1.0000
vn 0.0002 -1.0000 -0.0000
vn -0.0001 0.0105 0.9999
vn 0.0010 -0.0000 1.0000
vn 0.0001 1.0000 0.0034
vn 0.0002 1.0000 -0.0000
vn -0.3881 -0.0015 -0.9216
vn -0.6642 0.7351 -0.1358
vn 0.3929 0.0020 0.9196
vt 0.497371 0.662184
vt 0.501743 0.618467
vt 0.501743 0.662184
vt 0.497371 0.531032
vt 0.497371 0.487315
vt 0.501743 0.487315
vt 0.501743 0.531032
vt 0.501743 0.574749
vt 0.545460 0.531032
vt 0.545460 0.574749
vt 0.497371 0.574749
vt 0.497371 0.618467
vt 0.453654 0.574749
vt 0.453654 0.531032
vt 0.418980 0.357732
vt 0.321604 0.260357
vt 0.360245 0.221716
vt 0.683027 0.621780
vt 0.638332 0.499802
vt 0.721668 0.583139
vt 0.540957 0.402427
vt 0.554996 0.221716
vt 0.638332 0.305052
vt 0.457621 0.319091
vt 0.502316 0.441068
vt 0.599691 0.538444
vt 0.404940 0.538444
vt 0.321604 0.455107
vt 0.117077 0.054226
vt 0.117077 0.067341
vt 0.116203 0.067341
vt 0.117077 0.014880
vt 0.116203 0.027995
vt 0.116203 0.014880
vt 0.116203 0.041110
vt 0.103087 0.054226
vt 0.103087 0.041110
vt 0.116203 0.054226
vt 0.117077 0.041110
vt 0.117077 0.027995
vt 0.130192 0.041110
vt 0.130192 0.054226
vt 0.846249 0.568033
vt 0.768967 0.614402
vt 0.830792 0.552577
vt 0.645315 0.768967
vt 0.568033 0.846249
vt 0.552577 0.830792
vt 0.691685 0.691685
vt 0.552577 0.676228
vt 0.614402 0.614402
vt 0.629859 0.753510
vt 0.707141 0.707141
vt 0.784423 0.629859
vt 0.784423 0.784423
vt 0.722597 0.846249
vt 0.273852 0.716099
vt 0.228801 0.683869
vt 0.235211 0.677458
vt 0.157473 0.832478
vt 0.053915 0.936036
vt 0.015274 0.897395
vt 0.125243 0.787427
vt 0.015274 0.690279
vt 0.021685 0.683869
vt 0.118832 0.793837
vt 0.163884 0.826068
vt 0.267442 0.722510
vt 0.267442 0.929626
vt 0.261031 0.936036
vt 0.859717 0.202597
vt 0.814665 0.170367
vt 0.821076 0.163956
vt 0.734064 0.328250
vt 0.621232 0.441082
vt 0.582591 0.402441
vt 0.701833 0.283199
vt 0.582591 0.176777
vt 0.589002 0.170367
vt 0.695423 0.289609
vt 0.740475 0.321840
vt 0.853306 0.434671
vt 0.846896 0.441082
vt 0.853306 0.209008
vt 0.436593 0.053530
vt 0.314615 0.098225
vt 0.397951 0.014889
vt 0.161725 0.328398
vt 0.053530 0.436592
vt 0.014889 0.397951
vt 0.206420 0.206420
vt 0.014889 0.181562
vt 0.098225 0.098225
vt 0.123084 0.289756
vt 0.245062 0.245061
vt 0.353256 0.136867
vt 0.353256 0.353256
vt 0.269920 0.436593
vt 0.347061 0.741871
vt 0.300692 0.664588
vt 0.362518 0.726414
vt 0.146128 0.540937
vt 0.068846 0.463655
vt 0.084302 0.448198
vt 0.223410 0.587306
vt 0.238866 0.448198
vt 0.300692 0.510024
vt 0.161584 0.525481
vt 0.207953 0.602763
vt 0.285236 0.680045
vt 0.130671 0.680045
vt 0.068846 0.618219
vt 0.485918 0.978686
vt 0.516831 0.935408
vt 0.523013 0.941590
vt 0.396270 0.889038
vt 0.318988 0.811756
vt 0.356084 0.774661
vt 0.439548 0.858125
vt 0.510648 0.774661
vt 0.516831 0.780843
vt 0.433366 0.851943
vt 0.402453 0.895221
vt 0.479735 0.972503
vt 0.325171 0.972503
vt 0.318988 0.966320
vt 0.932959 0.485394
vt 0.879012 0.651520
vt 0.879012 0.485394
vt 0.932959 0.870107
vt 0.932959 0.922568
vt 0.879012 0.922568
vt 0.879012 0.703981
vt 0.826551 0.870107
vt 0.826551 0.703981
vt 0.879012 0.870107
vt 0.932959 0.703981
vt 0.932959 0.651520
vt 0.985420 0.703981
vt 0.985420 0.870107
vt 0.566325 0.089284
vt 0.637492 0.160637
vt 0.629751 0.168352
vt 0.152639 0.085592
vt 0.148267 0.096522
vt 0.148267 0.085592
vt 0.555490 0.093885
vt 0.487374 0.168334
vt 0.484644 0.164920
vt 0.558571 0.096986
vt 0.563244 0.086182
vt 0.492408 0.015162
vt 0.484642 0.022853
vt 0.634096 0.015178
vt 0.637492 0.017931
vt 0.691600 0.015459
vt 0.680671 0.085406
vt 0.680671 0.015459
vt 0.691600 0.164098
vt 0.691600 0.172841
vt 0.680671 0.172841
vt 0.680671 0.094150
vt 0.671927 0.164098
vt 0.671927 0.094150
vt 0.680671 0.164098
vt 0.691600 0.094150
vt 0.691600 0.085407
vt 0.700344 0.094150
vt 0.700344 0.164098
vt 0.064949 0.071830
vt 0.066494 0.064102
vt 0.069585 0.067193
vt 0.037127 0.044009
vt 0.015488 0.022370
vt 0.020125 0.017733
vt 0.044855 0.042463
vt 0.063403 0.017733
vt 0.066494 0.020824
vt 0.041764 0.039372
vt 0.040218 0.047100
vt 0.061857 0.068739
vt 0.018579 0.068739
vt 0.015488 0.065648
vt 0.206629 0.157128
vt 0.202258 0.157128
vt 0.202258 0.090236
vt 0.202258 0.018973
vt 0.202258 0.014601
vt 0.206629 0.014601
vt 0.206629 0.090236
vt 0.206629 0.085865
vt 0.211001 0.018973
vt 0.211001 0.085865
vt 0.206629 0.018973
vt 0.202258 0.085865
vt 0.197886 0.085865
vt 0.197886 0.018973
vt 0.020438 0.116842
vt 0.024809 0.112470
vt 0.024809 0.116842
vt 0.020438 0.112470
vt 0.024809 0.108098
vt 0.016066 0.112470
vt 0.020438 0.108098
vt 0.020438 0.121213
vt 0.024809 0.121213
vt 0.024809 0.103727
vt 0.029181 0.108098
vt 0.029181 0.112470
vt 0.016066 0.108098
vt 0.020438 0.103727
vt 0.152639 0.096522
s 0
usemtl マテリアル.009
f 2/1/1 4/2/1 1/3/1
f 5/4/2 2/5/2 1/6/2
f 5/4/2 1/6/2 3/7/2
f 6/8/3 3/7/3 1/9/3
f 6/8/3 1/9/3 4/10/3
f 7/11/4 3/7/4 6/8/4
f 8/12/5 6/8/5 4/2/5
f 8/12/5 7/11/5 6/8/5
f 2/1/1 8/12/1 4/2/1
f 8/13/6 2/14/6 5/4/6
f 8/13/6 5/4/6 7/11/6
f 7/11/4 5/4/4 3/7/4
f 13/15/2 10/16/2 9/17/2
f 10/18/1 11/19/1 9/20/1
f 14/21/3 9/22/3 11/23/3
f 14/21/3 12/24/3 9/22/3
f 13/15/2 9/17/2 12/24/2
f 15/25/4 12/24/4 14/21/4
f 16/26/5 14/21/5 11/19/5
f 16/26/5 15/25/5 14/21/5
f 16/27/6 10/28/6 13/15/6
f 10/18/1 16/26/1 11/19/1
f 16/27/6 13/15/6 15/25/6
f 15/25/4 13/15/4 12/24/4
f 29/29/2 26/30/2 25/31/2
f 26/32/1 27/33/1 25/34/1
f 30/35/3 25/36/3 27/37/3
f 30/35/3 28/38/3 25/36/3
f 29/29/2 25/31/2 28/38/2
f 31/39/4 28/38/4 30/35/4
f 32/40/5 30/35/5 27/33/5
f 32/40/5 31/39/5 30/35/5
f 32/41/6 26/42/6 29/29/6
f 26/32/1 32/40/1 27/33/1
f 32/41/6 29/29/6 31/39/6
f 31/39/4 29/29/4 28/38/4
f 34/43/1 35/44/1 33/45/1
f 37/46/2 34/47/2 33/48/2
f 38/49/3 33/50/3 35/51/3
f 37/46/2 33/48/2 36/52/2
f 38/49/3 36/52/3 33/50/3
f 39/53/4 36/52/4 38/49/4
f 40/54/5 38/49/5 35/44/5
f 40/54/5 39/53/5 38/49/5
f 34/43/1 40/54/1 35/44/1
f 40/55/6 34/56/6 37/46/6
f 40/55/6 37/46/6 39/53/6
f 39/53/4 37/46/4 36/52/4
f 42/57/1 43/58/1 41/59/1
f 45/60/2 42/61/2 41/62/2
f 46/63/3 41/64/3 43/65/3
f 45/60/2 41/62/2 44/66/2
f 46/63/3 44/66/3 41/64/3
f 47/67/4 44/66/4 46/63/4
f 48/68/5 46/63/5 43/58/5
f 48/68/5 47/67/5 46/63/5
f 42/57/1 48/68/1 43/58/1
f 48/69/6 42/70/6 45/60/6
f 48/69/6 45/60/6 47/67/6
f 47/67/4 45/60/4 44/66/4
f 50/71/1 51/72/1 49/73/1
f 54/74/2 50/75/2 49/76/2
f 53/77/3 49/78/3 51/79/3
f 54/74/2 49/76/2 52/80/2
f 53/77/3 52/80/3 49/78/3
f 55/81/4 54/74/4 52/80/4
f 56/82/6 50/83/6 54/74/6
f 56/82/6 54/74/6 55/81/6
f 50/71/1 56/84/1 51/72/1
f 56/84/5 53/77/5 51/72/5
f 56/84/5 55/81/5 53/77/5
f 55/81/4 52/80/4 53/77/4
f 58/85/1 59/86/1 57/87/1
f 61/88/2 58/89/2 57/90/2
f 62/91/3 57/92/3 59/93/3
f 61/88/2 57/90/2 60/94/2
f 62/91/3 60/94/3 57/92/3
f 63/95/4 60/94/4 62/91/4
f 64/96/5 62/91/5 59/86/5
f 64/96/5 63/95/5 62/91/5
f 58/85/1 64/96/1 59/86/1
f 64/97/6 61/88/6 63/95/6
f 64/97/6 58/98/6 61/88/6
f 63/95/4 61/88/4 60/94/4
f 66/99/1 67/100/1 65/101/1
f 69/102/2 66/103/2 65/104/2
f 70/105/3 65/106/3 67/107/3
f 69/102/2 65/104/2 68/108/2
f 70/105/3 68/108/3 65/106/3
f 71/109/4 68/108/4 70/105/4
f 72/110/5 70/105/5 67/100/5
f 72/110/5 71/109/5 70/105/5
f 66/99/1 72/110/1 67/100/1
f 72/111/6 66/112/6 69/102/6
f 72/111/6 69/102/6 71/109/6
f 71/109/4 69/102/4 68/108/4
f 74/113/1 75/114/1 73/115/1
f 77/116/2 74/117/2 73/118/2
f 78/119/3 73/120/3 75/121/3
f 77/116/2 73/118/2 76/122/2
f 78/119/3 76/122/3 73/120/3
f 79/123/4 76/122/4 78/119/4
f 80/124/5 78/119/5 75/114/5
f 80/124/5 79/123/5 78/119/5
f 74/113/1 80/124/1 75/114/1
f 80/125/6 74/126/6 77/116/6
f 80/125/6 77/116/6 79/123/6
f 79/123/4 77/116/4 76/122/4
f 82/127/1 83/128/1 81/129/1
f 85/130/2 82/131/2 81/132/2
f 86/133/3 81/134/3 83/135/3
f 85/130/2 81/132/2 84/136/2
f 86/133/3 84/136/3 81/134/3
f 87/137/4 84/136/4 86/133/4
f 88/138/5 86/133/5 83/128/5
f 88/138/5 87/137/5 86/133/5
f 82/127/1 88/138/1 83/128/1
f 88/139/6 82/140/6 85/130/6
f 88/139/6 85/130/6 87/137/6
f 87/137/4 85/130/4 84/136/4
f 93/141/7 90/142/7 89/143/7
f 96/144/8 89/145/9 90/146/10
f 94/147/11 89/148/11 91/149/11
f 93/141/12 89/143/12 92/150/12
f 94/147/13 92/150/13 89/148/13
f 95/151/4 92/150/4 94/147/4
f 96/152/14 94/147/14 91/153/14
f 96/152/15 95/151/15 94/147/15
f 96/154/16 90/155/16 93/141/16
f 96/154/17 93/141/17 95/151/17
f 95/151/4 93/141/4 92/150/4
f 98/156/1 99/157/1 97/158/1
f 101/159/2 98/160/2 97/161/2
f 102/162/3 97/163/3 99/164/3
f 101/159/2 97/161/2 100/165/2
f 102/162/3 100/165/3 97/163/3
f 103/166/4 100/165/4 102/162/4
f 104/167/5 102/162/5 99/157/5
f 104/167/5 103/166/5 102/162/5
f 98/156/1 104/167/1 99/157/1
f 104/168/6 98/169/6 101/159/6
f 104/168/6 101/159/6 103/166/6
f 103/166/4 101/159/4 100/165/4
f 106/170/1 107/171/1 105/172/1
f 109/173/2 106/174/2 105/175/2
f 110/176/3 105/177/3 107/178/3
f 109/173/2 105/175/2 108/179/2
f 110/176/3 108/179/3 105/177/3
f 111/180/4 108/179/4 110/176/4
f 112/181/5 110/176/5 107/171/5
f 112/181/5 111/180/5 110/176/5
f 106/170/1 112/181/1 107/171/1
f 112/182/6 106/183/6 109/173/6
f 112/182/6 109/173/6 111/180/6
f 111/180/4 109/173/4 108/179/4
f 113/184/4 114/185/4 116/186/4
f 119/187/5 114/188/5 113/189/5
f 113/184/4 116/186/4 115/190/4
f 118/191/3 113/192/3 115/193/3
f 119/187/5 113/189/5 117/194/5
f 118/191/3 117/194/3 113/192/3
f 120/195/1 119/187/1 117/194/1
f 116/196/6 114/197/6 119/187/6
f 116/196/6 119/187/6 120/195/6
f 120/195/1 117/194/1 118/191/1
f 116/186/2 120/195/2 118/191/2
f 116/186/2 118/191/2 115/190/2
f 96/144/18 91/212/19 89/145/20
usemtl Material.001
f 20/198/2 18/199/2 21/200/2
f 17/201/1 24/202/1 18/199/1
f 20/203/6 19/204/6 17/201/6
f 22/205/4 21/200/4 23/206/4
f 19/204/5 23/207/5 24/202/5
f 18/199/3 23/208/3 21/209/3
f 20/198/2 17/201/2 18/199/2
f 17/201/1 19/204/1 24/202/1
f 20/203/6 22/210/6 19/204/6
f 22/205/4 20/198/4 21/200/4
f 19/204/5 22/211/5 23/207/5
f 18/199/3 24/202/3 23/208/3
