# Blender 4.1.1
# www.blender.org
mtllib stage6.mtl
o 立方体
v -27.197330 0.393549 -50.038105
v -27.197330 2.393549 -50.038105
v -27.197330 0.393549 -52.038105
v -27.197330 2.393549 -52.038105
v -25.197330 0.393549 -50.038105
v -25.197330 2.393549 -50.038105
v -25.197330 0.393549 -52.038105
v -25.197330 2.393549 -52.038105
v -1.000000 -0.523840 1.000000
v -1.000000 1.476160 1.000000
v -1.000000 -0.523840 -1.000000
v -1.000000 1.476160 -1.000000
v 1.000000 -0.523840 1.000000
v 1.000000 1.476160 1.000000
v 1.000000 -0.523840 -1.000000
v 1.000000 1.476160 -1.000000
v -14.556651 1.009124 41.910896
v -14.556651 9.009124 41.910896
v -14.556651 1.009123 31.910896
v -4.556651 1.009124 41.910896
v -4.556651 9.009124 41.910896
v -4.556651 1.009123 31.910896
v -4.556651 9.009124 31.910896
v -14.556651 9.009124 31.910896
v -13.222690 1.009123 30.910896
v -13.222690 5.009123 30.910896
v -13.222690 1.009123 24.910896
v -7.222690 1.009123 30.910896
v -7.222690 5.009123 30.910896
v -7.222690 1.009123 24.910896
v -7.222690 5.009123 24.910896
v -13.222690 5.009123 24.910896
v -41.556652 1.009122 15.910896
v -41.556652 26.009123 15.910894
v -31.556652 1.009122 15.910896
v -41.556652 1.009121 5.910896
v -31.556652 26.009123 15.910894
v -31.556652 1.009121 5.910896
v -31.556652 26.009121 5.910894
v -41.556652 26.009121 5.910894
v -15.556651 1.009122 14.910896
v -15.556651 9.009122 14.910895
v -15.556651 1.009121 4.910896
v -5.556651 1.009122 14.910896
v -5.556651 9.009122 14.910895
v -5.556651 1.009121 4.910896
v -5.556651 9.009121 4.910895
v -15.556651 9.009121 4.910895
v -29.924046 1.037099 -45.918995
v -29.924046 3.037098 -45.918995
v -29.924046 1.037098 -53.918995
v -21.924046 1.037099 -45.918995
v -21.924046 1.037098 -53.918995
v -21.924046 3.037098 -45.918995
v -21.924046 3.037098 -53.918995
v -29.924046 3.037098 -53.918995
v 17.105701 11.861798 8.891551
v 17.105701 13.861798 8.891551
v 17.105701 11.861797 5.891551
v 20.105701 11.861798 8.891551
v 20.105701 13.861798 8.891551
v 20.105701 11.861797 5.891551
v 20.105701 13.861797 5.891551
v 17.105701 13.861797 5.891551
v 17.848606 9.375216 -27.088284
v 17.848606 18.975214 -27.088285
v 17.848606 9.375216 -29.088284
v 37.249996 9.375216 -27.088284
v 37.249996 18.975214 -27.088285
v 37.249996 9.375216 -29.088284
v 37.249996 18.975214 -29.088285
v 17.848606 18.975214 -29.088285
v -3.055416 9.375216 -27.088284
v -3.055416 18.975214 -27.088285
v -3.055416 9.375216 -29.088284
v 12.092336 9.375216 -27.088284
v 12.092336 18.975214 -27.088285
v 12.092336 9.375216 -29.088284
v 12.092336 18.975214 -29.088285
v -3.055416 18.975214 -29.088285
v 35.087566 9.163622 -27.857697
v 35.087566 18.843622 -27.857698
v 35.087566 9.163619 -59.857697
v 37.087566 9.163622 -27.857697
v 37.087566 18.843622 -27.857698
v 37.087566 9.163619 -59.857697
v 37.087566 18.843620 -59.857697
v 35.087566 18.843620 -59.857697
v -2.912433 9.163622 -27.857697
v -2.912433 18.843622 -27.857698
v -2.912433 9.163619 -59.857697
v -0.912433 9.163622 -27.857697
v -0.912433 18.843622 -27.857698
v -0.912433 9.163619 -59.857697
v -0.912433 18.843620 -59.857697
v -2.912433 18.843620 -59.857697
v -1.998106 9.375213 -58.088284
v -1.998106 18.975212 -58.088284
v -1.998106 9.375213 -60.088284
v 36.347900 9.375213 -58.088284
v 36.347900 18.975212 -58.088284
v 36.347900 9.375213 -60.088284
v 36.347900 18.975212 -60.088284
v -1.998106 18.975212 -60.088284
v 9.779900 9.002199 -28.660088
v 9.779900 11.002199 -28.660088
v 9.779900 9.002199 -30.660088
v 19.579899 9.002199 -28.660088
v 19.579899 11.002199 -28.660088
v 19.579899 9.002199 -30.660088
v 19.579899 11.002199 -30.660088
v 9.779900 11.002199 -30.660088
v 16.443348 9.039240 59.910896
v 16.443348 35.886707 59.910892
v 16.443348 9.039238 39.910896
v 36.443348 9.039240 59.910896
v 36.443348 35.886707 59.910892
v 36.443348 9.039238 39.910896
v 36.443348 35.886707 39.910892
v 16.443348 35.886707 39.910892
v 1.625739 36.529442 53.182751
v 1.625739 39.529442 53.182751
v 1.625739 36.529442 45.412754
v 16.925739 36.529442 53.182751
v 16.925739 39.529442 53.182751
v 16.925739 36.529442 45.412754
v 16.925739 39.529442 45.412754
v 1.625739 39.529442 45.412754
v -15.142647 37.405125 55.987888
v -15.142647 39.405125 55.987888
v -15.142647 37.405125 42.987888
v -2.142646 37.405125 55.987888
v -2.142646 39.405125 55.987888
v -2.142646 37.405125 42.987888
v -2.142646 39.405125 42.987888
v -15.142647 39.405125 42.987888
v -42.631416 -0.999996 59.503189
v -42.631416 1.000005 59.503189
v -2.631416 -0.999996 59.503189
v -42.631416 -1.000005 -60.496811
v -2.631416 1.000005 59.503189
v -2.631416 -1.000005 -60.496811
v -2.631416 0.999995 -60.496811
v -42.631416 0.999995 -60.496811
v -3.007385 -1.132864 59.706718
v -3.007385 9.267137 59.706718
v -3.007385 -1.132874 -60.293282
v 36.992615 -1.132864 59.706718
v 36.992615 -1.132874 -60.293282
v 36.992615 9.267137 59.706718
v 36.992615 9.267127 -60.293282
v -3.007385 9.267127 -60.293282
v 12.055536 16.980373 -27.113749
v 12.055536 18.980373 -27.113749
v 12.055536 16.980373 -29.113749
v 17.861858 16.980373 -27.113749
v 17.861858 18.980373 -27.113749
v 17.861858 16.980373 -29.113749
v 17.861858 18.980373 -29.113749
v 12.055536 18.980373 -29.113749
vn -1.0000 -0.0000 -0.0000
vn -0.0000 -0.0000 -1.0000
vn 1.0000 -0.0000 -0.0000
vn -0.0000 -0.0000 1.0000
vn -0.0000 -1.0000 -0.0000
vn -0.0000 1.0000 -0.0000
vt 0.375000 0.000000
vt 0.625000 0.000000
vt 0.625000 0.250000
vt 0.375000 0.250000
vt 0.625000 0.500000
vt 0.375000 0.500000
vt 0.625000 0.750000
vt 0.375000 0.750000
vt 0.625000 1.000000
vt 0.375000 1.000000
vt 0.125000 0.500000
vt 0.125000 0.750000
vt 0.875000 0.500000
vt 0.875000 0.750000
vt 0.535968 0.034796
vt 0.542693 0.041521
vt 0.535968 0.041521
vt 0.542693 0.034796
vt 0.549418 0.041521
vt 0.549418 0.034796
vt 0.556142 0.041521
vt 0.556142 0.034796
vt 0.562867 0.041521
vt 0.556142 0.048246
vt 0.549418 0.048246
vt 0.549418 0.028072
vt 0.562867 0.034796
vt 0.556142 0.028072
vt 0.812999 0.845163
vt 0.812999 0.876464
vt 0.781697 0.876464
vt 0.812999 0.751257
vt 0.781697 0.782559
vt 0.781697 0.751257
vt 0.781697 0.813861
vt 0.750395 0.845163
vt 0.750395 0.813861
vt 0.781697 0.845163
vt 0.812999 0.813861
vt 0.812999 0.782559
vt 0.844301 0.813861
vt 0.844301 0.845163
vt 0.901188 0.256201
vt 0.901188 0.238409
vt 0.918980 0.238409
vt 0.901188 0.309577
vt 0.918980 0.291785
vt 0.918980 0.309577
vt 0.918980 0.273993
vt 0.936772 0.256201
vt 0.936772 0.273993
vt 0.918980 0.256201
vt 0.901188 0.273993
vt 0.901188 0.291785
vt 0.883396 0.273993
vt 0.883396 0.256201
vt 0.181827 0.759671
vt 0.233188 0.759671
vt 0.233188 0.811032
vt 0.027744 0.759671
vt 0.079105 0.811032
vt 0.027744 0.811032
vt 0.130466 0.811032
vt 0.181827 0.811032
vt 0.181827 0.862393
vt 0.130466 0.862393
vt 0.130466 0.759671
vt 0.079105 0.759671
vt 0.130466 0.708310
vt 0.181827 0.708310
vt 0.091323 0.121476
vt 0.091323 0.152778
vt 0.060021 0.152778
vt 0.091323 0.027571
vt 0.060021 0.058873
vt 0.060021 0.027571
vt 0.060021 0.090174
vt 0.028719 0.121476
vt 0.028719 0.090174
vt 0.060021 0.121476
vt 0.091323 0.090174
vt 0.091323 0.058873
vt 0.122625 0.090174
vt 0.122625 0.121476
vt 0.047471 0.246331
vt 0.028451 0.246331
vt 0.028451 0.227311
vt 0.104532 0.246331
vt 0.085512 0.227311
vt 0.104532 0.227311
vt 0.066492 0.227311
vt 0.047471 0.208290
vt 0.066492 0.208290
vt 0.047471 0.227311
vt 0.066492 0.246331
vt 0.066492 0.265352
vt 0.047471 0.265352
vt 0.085512 0.246331
vt 0.421295 0.259621
vt 0.430191 0.259621
vt 0.430191 0.268517
vt 0.394607 0.259621
vt 0.403503 0.268517
vt 0.394607 0.268517
vt 0.412399 0.268517
vt 0.421295 0.277413
vt 0.412399 0.277413
vt 0.421295 0.268517
vt 0.412399 0.259621
vt 0.403503 0.259621
vt 0.412399 0.250725
vt 0.421295 0.250725
vt 0.933399 0.933399
vt 0.933399 0.962905
vt 0.903893 0.962905
vt 0.933399 0.844882
vt 0.903893 0.874388
vt 0.903893 0.844882
vt 0.903893 0.903893
vt 0.874388 0.933399
vt 0.874388 0.903893
vt 0.903893 0.933399
vt 0.933399 0.903893
vt 0.933399 0.874388
vt 0.962905 0.903893
vt 0.962905 0.933399
vt 0.103533 0.576951
vt 0.128655 0.576951
vt 0.128655 0.602073
vt 0.028167 0.576951
vt 0.053289 0.602073
vt 0.028167 0.602073
vt 0.078411 0.602073
vt 0.103533 0.627195
vt 0.078411 0.627195
vt 0.103533 0.602073
vt 0.078411 0.576951
vt 0.053289 0.576951
vt 0.078411 0.551829
vt 0.103533 0.551829
vt 0.825913 0.431906
vt 0.825913 0.470396
vt 0.787423 0.470396
vt 0.825913 0.316437
vt 0.787423 0.354926
vt 0.787423 0.316437
vt 0.787423 0.393416
vt 0.748933 0.431906
vt 0.748933 0.393416
vt 0.787423 0.431906
vt 0.825913 0.393416
vt 0.825913 0.354926
vt 0.864403 0.393416
vt 0.864403 0.431906
vt 0.326783 0.827923
vt 0.288293 0.827923
vt 0.288293 0.789434
vt 0.442253 0.827923
vt 0.403763 0.789434
vt 0.442253 0.789434
vt 0.365273 0.789434
vt 0.326783 0.750944
vt 0.365273 0.750944
vt 0.326783 0.789434
vt 0.365273 0.827923
vt 0.403763 0.827923
vt 0.365273 0.866413
vt 0.326783 0.866413
vt 0.478835 0.153177
vt 0.478835 0.194993
vt 0.437019 0.194993
vt 0.478835 0.027727
vt 0.437019 0.069543
vt 0.437019 0.027727
vt 0.437019 0.111360
vt 0.395202 0.153177
vt 0.395202 0.111360
vt 0.437019 0.153177
vt 0.478835 0.111360
vt 0.478835 0.069543
vt 0.520652 0.111360
vt 0.520652 0.153177
vt 0.053579 0.907930
vt 0.053579 0.920690
vt 0.040819 0.920690
vt 0.053579 0.869653
vt 0.040819 0.882412
vt 0.040819 0.869653
vt 0.040819 0.895171
vt 0.028060 0.907930
vt 0.028060 0.895171
vt 0.040819 0.907930
vt 0.053579 0.895171
vt 0.053579 0.882412
vt 0.066338 0.895171
vt 0.066338 0.907930
vt 0.828968 0.106030
vt 0.906618 0.106030
vt 0.906618 0.183681
vt 0.596016 0.106030
vt 0.673667 0.183681
vt 0.596016 0.183681
vt 0.751317 0.183681
vt 0.828968 0.261331
vt 0.751317 0.261331
vt 0.828968 0.183681
vt 0.751317 0.106030
vt 0.673667 0.106030
vt 0.751317 0.028380
vt 0.828968 0.028380
vt 0.915688 0.515160
vt 0.915688 0.488536
vt 0.942312 0.488536
vt 0.915688 0.595031
vt 0.942312 0.568407
vt 0.942312 0.595031
vt 0.942312 0.541784
vt 0.968935 0.515160
vt 0.968935 0.541784
vt 0.942312 0.515160
vt 0.915688 0.541784
vt 0.915688 0.568407
vt 0.889064 0.541784
vt 0.889064 0.515160
vt 0.452167 0.944097
vt 0.423308 0.944097
vt 0.423308 0.915238
vt 0.538744 0.944097
vt 0.509885 0.915238
vt 0.538744 0.915238
vt 0.481026 0.915238
vt 0.452167 0.886379
vt 0.481026 0.886379
vt 0.452167 0.915238
vt 0.481026 0.944097
vt 0.509885 0.944097
vt 0.481026 0.972956
vt 0.452167 0.972956
vt 0.693334 0.693334
vt 0.693334 0.832239
vt 0.554429 0.832239
vt 0.693334 0.276618
vt 0.554428 0.415523
vt 0.554428 0.276618
vt 0.554428 0.554429
vt 0.554429 0.693334
vt 0.415523 0.693334
vt 0.415523 0.554428
vt 0.693334 0.554428
vt 0.693334 0.415523
vt 0.832239 0.554428
vt 0.832239 0.693334
vt 0.339449 0.496247
vt 0.339449 0.652323
vt 0.183373 0.652323
vt 0.339449 0.028021
vt 0.183373 0.184096
vt 0.183373 0.028021
vt 0.183373 0.340172
vt 0.027298 0.496247
vt 0.027298 0.340172
vt 0.183373 0.496247
vt 0.339449 0.340172
vt 0.495524 0.340172
vt 0.495524 0.496247
vt 0.339449 0.184096
s 0
usemtl マテリアル
f 1/1/1 2/2/1 4/3/1 3/4/1
f 3/4/2 4/3/2 8/5/2 7/6/2
f 7/6/3 8/5/3 6/7/3 5/8/3
f 5/8/4 6/7/4 2/9/4 1/10/4
f 3/11/5 7/6/5 5/8/5 1/12/5
f 8/5/6 4/13/6 2/14/6 6/7/6
f 10/15/1 11/16/1 9/17/1
f 12/18/2 15/19/2 11/16/2
f 16/20/3 13/21/3 15/19/3
f 14/22/4 9/23/4 13/21/4
f 15/19/5 9/24/5 11/25/5
f 12/26/6 14/22/6 16/20/6
f 10/15/1 12/18/1 11/16/1
f 12/18/2 16/20/2 15/19/2
f 16/20/3 14/22/3 13/21/3
f 14/22/4 10/27/4 9/23/4
f 15/19/5 13/21/5 9/24/5
f 12/26/6 10/28/6 14/22/6
f 21/29/4 18/30/4 17/31/4
f 18/32/1 19/33/1 17/34/1
f 22/35/5 17/36/5 19/37/5
f 22/35/5 20/38/5 17/36/5
f 21/29/4 17/31/4 20/38/4
f 23/39/3 20/38/3 22/35/3
f 24/40/2 22/35/2 19/33/2
f 24/40/2 23/39/2 22/35/2
f 24/41/6 18/42/6 21/29/6
f 18/32/1 24/40/1 19/33/1
f 24/41/6 21/29/6 23/39/6
f 23/39/3 21/29/3 20/38/3
f 29/43/4 26/44/4 25/45/4
f 26/46/1 27/47/1 25/48/1
f 30/49/5 25/50/5 27/51/5
f 30/49/5 28/52/5 25/50/5
f 29/43/4 25/45/4 28/52/4
f 31/53/3 28/52/3 30/49/3
f 32/54/2 30/49/2 27/47/2
f 32/54/2 31/53/2 30/49/2
f 32/55/6 26/56/6 29/43/6
f 26/46/1 32/54/1 27/47/1
f 32/55/6 29/43/6 31/53/6
f 31/53/3 29/43/3 28/52/3
f 37/57/4 34/58/4 33/59/4
f 34/60/1 36/61/1 33/62/1
f 38/63/5 35/64/5 33/65/5
f 37/57/4 33/59/4 35/64/4
f 38/63/5 33/65/5 36/66/5
f 39/67/3 35/64/3 38/63/3
f 40/68/2 38/63/2 36/61/2
f 40/68/2 39/67/2 38/63/2
f 40/69/6 34/70/6 37/57/6
f 34/60/1 40/68/1 36/61/1
f 40/69/6 37/57/6 39/67/6
f 39/67/3 37/57/3 35/64/3
f 45/71/4 42/72/4 41/73/4
f 42/74/1 43/75/1 41/76/1
f 46/77/5 41/78/5 43/79/5
f 46/77/5 44/80/5 41/78/5
f 45/71/4 41/73/4 44/80/4
f 47/81/3 44/80/3 46/77/3
f 48/82/2 46/77/2 43/75/2
f 48/82/2 47/81/2 46/77/2
f 42/74/1 48/82/1 43/75/1
f 48/83/6 42/84/6 45/71/6
f 48/83/6 45/71/6 47/81/6
f 47/81/3 45/71/3 44/80/3
f 54/85/4 50/86/4 49/87/4
f 50/88/1 51/89/1 49/90/1
f 53/91/5 49/92/5 51/93/5
f 53/91/5 52/94/5 49/92/5
f 54/85/4 49/87/4 52/94/4
f 55/95/3 54/85/3 52/94/3
f 56/96/6 50/97/6 54/85/6
f 56/96/6 54/85/6 55/95/6
f 50/88/1 56/98/1 51/89/1
f 56/98/2 53/91/2 51/89/2
f 56/98/2 55/95/2 53/91/2
f 55/95/3 52/94/3 53/91/3
f 61/99/4 58/100/4 57/101/4
f 58/102/1 59/103/1 57/104/1
f 62/105/5 57/106/5 59/107/5
f 62/105/5 60/108/5 57/106/5
f 61/99/4 57/101/4 60/108/4
f 63/109/3 60/108/3 62/105/3
f 64/110/2 62/105/2 59/103/2
f 64/110/2 63/109/2 62/105/2
f 58/102/1 64/110/1 59/103/1
f 64/111/6 58/112/6 61/99/6
f 64/111/6 61/99/6 63/109/6
f 63/109/3 61/99/3 60/108/3
f 69/113/4 66/114/4 65/115/4
f 66/116/1 67/117/1 65/118/1
f 70/119/5 65/120/5 67/121/5
f 70/119/5 68/122/5 65/120/5
f 69/113/4 65/115/4 68/122/4
f 71/123/3 68/122/3 70/119/3
f 72/124/2 70/119/2 67/117/2
f 72/124/2 71/123/2 70/119/2
f 72/125/6 66/126/6 69/113/6
f 66/116/1 72/124/1 67/117/1
f 72/125/6 69/113/6 71/123/6
f 71/123/3 69/113/3 68/122/3
f 77/127/4 74/128/4 73/129/4
f 74/130/1 75/131/1 73/132/1
f 78/133/5 73/134/5 75/135/5
f 78/133/5 76/136/5 73/134/5
f 77/127/4 73/129/4 76/136/4
f 79/137/3 76/136/3 78/133/3
f 80/138/2 78/133/2 75/131/2
f 80/138/2 79/137/2 78/133/2
f 80/139/6 74/140/6 77/127/6
f 74/130/1 80/138/1 75/131/1
f 80/139/6 77/127/6 79/137/6
f 79/137/3 77/127/3 76/136/3
f 85/141/4 82/142/4 81/143/4
f 82/144/1 83/145/1 81/146/1
f 86/147/5 81/148/5 83/149/5
f 86/147/5 84/150/5 81/148/5
f 85/141/4 81/143/4 84/150/4
f 87/151/3 84/150/3 86/147/3
f 88/152/2 86/147/2 83/145/2
f 88/152/2 87/151/2 86/147/2
f 88/153/6 82/154/6 85/141/6
f 82/144/1 88/152/1 83/145/1
f 88/153/6 85/141/6 87/151/6
f 87/151/3 85/141/3 84/150/3
f 93/155/4 90/156/4 89/157/4
f 90/158/1 91/159/1 89/160/1
f 94/161/5 89/162/5 91/163/5
f 94/161/5 92/164/5 89/162/5
f 93/155/4 89/157/4 92/164/4
f 95/165/3 92/164/3 94/161/3
f 96/166/2 94/161/2 91/159/2
f 96/166/2 95/165/2 94/161/2
f 96/167/6 90/168/6 93/155/6
f 90/158/1 96/166/1 91/159/1
f 96/167/6 93/155/6 95/165/6
f 95/165/3 93/155/3 92/164/3
f 101/169/4 98/170/4 97/171/4
f 98/172/1 99/173/1 97/174/1
f 102/175/5 97/176/5 99/177/5
f 102/175/5 100/178/5 97/176/5
f 101/169/4 97/171/4 100/178/4
f 103/179/3 100/178/3 102/175/3
f 104/180/2 102/175/2 99/173/2
f 104/180/2 103/179/2 102/175/2
f 104/181/6 98/182/6 101/169/6
f 98/172/1 104/180/1 99/173/1
f 104/181/6 101/169/6 103/179/6
f 103/179/3 101/169/3 100/178/3
f 109/183/4 106/184/4 105/185/4
f 106/186/1 107/187/1 105/188/1
f 110/189/5 105/190/5 107/191/5
f 110/189/5 108/192/5 105/190/5
f 109/183/4 105/185/4 108/192/4
f 111/193/3 108/192/3 110/189/3
f 112/194/2 110/189/2 107/187/2
f 112/194/2 111/193/2 110/189/2
f 112/195/6 106/196/6 109/183/6
f 106/186/1 112/194/1 107/187/1
f 112/195/6 109/183/6 111/193/6
f 111/193/3 109/183/3 108/192/3
f 117/197/4 114/198/4 113/199/4
f 114/200/1 115/201/1 113/202/1
f 118/203/5 113/204/5 115/205/5
f 118/203/5 116/206/5 113/204/5
f 117/197/4 113/199/4 116/206/4
f 119/207/3 116/206/3 118/203/3
f 120/208/2 118/203/2 115/201/2
f 120/208/2 119/207/2 118/203/2
f 120/209/6 114/210/6 117/197/6
f 114/200/1 120/208/1 115/201/1
f 120/209/6 117/197/6 119/207/6
f 119/207/3 117/197/3 116/206/3
f 125/211/4 122/212/4 121/213/4
f 122/214/1 123/215/1 121/216/1
f 126/217/5 121/218/5 123/219/5
f 126/217/5 124/220/5 121/218/5
f 125/211/4 121/213/4 124/220/4
f 127/221/3 124/220/3 126/217/3
f 128/222/2 126/217/2 123/215/2
f 128/222/2 127/221/2 126/217/2
f 128/223/6 122/224/6 125/211/6
f 122/214/1 128/222/1 123/215/1
f 128/223/6 125/211/6 127/221/6
f 127/221/3 125/211/3 124/220/3
f 133/225/4 130/226/4 129/227/4
f 130/228/1 131/229/1 129/230/1
f 134/231/5 129/232/5 131/233/5
f 134/231/5 132/234/5 129/232/5
f 133/225/4 129/227/4 132/234/4
f 135/235/3 132/234/3 134/231/3
f 136/236/2 134/231/2 131/229/2
f 136/236/2 135/235/2 134/231/2
f 136/237/6 130/238/6 133/225/6
f 130/228/1 136/236/1 131/229/1
f 136/237/6 133/225/6 135/235/6
f 135/235/3 133/225/3 132/234/3
f 141/239/4 138/240/4 137/241/4
f 138/242/1 140/243/1 137/244/1
f 142/245/5 139/246/5 137/247/5
f 141/239/4 137/241/4 139/246/4
f 142/245/5 137/247/5 140/248/5
f 143/249/3 139/246/3 142/245/3
f 144/250/2 142/245/2 140/243/2
f 144/250/2 143/249/2 142/245/2
f 144/251/6 138/252/6 141/239/6
f 138/242/1 144/250/1 140/243/1
f 144/251/6 141/239/6 143/249/6
f 143/249/3 141/239/3 139/246/3
f 150/253/4 146/254/4 145/255/4
f 146/256/1 147/257/1 145/258/1
f 149/259/5 145/260/5 147/261/5
f 149/259/5 148/262/5 145/260/5
f 150/253/4 145/255/4 148/262/4
f 151/263/3 150/253/3 148/262/3
f 152/264/6 146/265/6 150/253/6
f 152/264/6 150/253/6 151/263/6
f 146/256/1 152/266/1 147/257/1
f 152/266/2 149/259/2 147/257/2
f 152/266/2 151/263/2 149/259/2
f 151/263/3 148/262/3 149/259/3
usemtl マテリアル.001
f 157/183/4 154/184/4 153/185/4
f 154/186/1 155/187/1 153/188/1
f 158/189/5 153/190/5 155/191/5
f 158/189/5 156/192/5 153/190/5
f 157/183/4 153/185/4 156/192/4
f 159/193/3 156/192/3 158/189/3
f 160/194/2 158/189/2 155/187/2
f 160/194/2 159/193/2 158/189/2
f 160/195/6 154/196/6 157/183/6
f 154/186/1 160/194/1 155/187/1
f 160/195/6 157/183/6 159/193/6
f 159/193/3 157/183/3 156/192/3
