# Blender 4.1.1
# www.blender.org
mtllib key.mtl
o 立方体
v -1.156262 -2.153000 1.023828
v -1.156262 -1.683006 1.023828
v -1.156262 -2.153000 -1.096570
v -1.156262 -1.683006 -1.096570
v 0.541768 -2.153000 1.023828
v 0.541768 -1.683006 1.023828
v 0.541768 -2.153000 -1.096570
v 0.541768 -1.683006 -1.096570
v -1.124574 -1.255476 1.023828
v -1.124574 -0.785482 1.023828
v -1.124574 -1.255476 -1.096570
v -1.124574 -0.785482 -1.096570
v 0.580426 -1.255476 1.023828
v 0.580426 -0.785482 1.023828
v 0.580426 -1.255476 -1.096570
v 0.580426 -0.785482 -1.096570
v 0.618462 -2.148998 1.023828
v -0.086096 -2.148864 1.023828
v 0.618462 -2.148998 -1.096570
v -0.086096 -2.148864 -1.096570
v 0.619002 0.709054 1.023828
v -0.085556 0.709186 1.023828
v 0.619002 0.709054 -1.096570
v -0.085556 0.709186 -1.096570
v 1.642078 0.187692 1.023828
v -1.109538 0.188212 1.023828
v 1.642078 0.187692 -1.096570
v -1.109538 0.188212 -1.096570
v 1.642444 2.122220 1.023828
v -1.109172 2.122740 1.023828
v 1.642444 2.122220 -1.096570
v -1.109172 2.122740 -1.096570
vn -1.0000 -0.0000 -0.0000
vn -0.0000 -0.0000 -1.0000
vn 1.0000 -0.0000 -0.0000
vn -0.0000 -0.0000 1.0000
vn -0.0000 -1.0000 -0.0000
vn -0.0000 1.0000 -0.0000
vn -0.0002 -1.0000 -0.0000
vn 0.0002 1.0000 -0.0000
vn 1.0000 -0.0002 -0.0000
vn -1.0000 0.0002 -0.0000
vt 0.107124 0.551960
vt 0.053631 0.605454
vt 0.053631 0.551960
vt 0.107124 0.605454
vt 0.053631 0.658947
vt 0.107124 0.658947
vt 0.053631 0.712441
vt 0.107124 0.712441
vt 0.053631 0.765935
vt 0.000137 0.712441
vt 0.000137 0.658947
vt 0.160618 0.658947
vt 0.658839 0.448847
vt 0.605346 0.502341
vt 0.605346 0.448847
vt 0.658839 0.502341
vt 0.605346 0.556054
vt 0.658839 0.556054
vt 0.605346 0.609548
vt 0.658839 0.609548
vt 0.605346 0.663261
vt 0.551632 0.609548
vt 0.551632 0.556054
vt 0.712552 0.556054
vt 0.551358 0.015827
vt 0.497845 0.037975
vt 0.535658 0.000137
vt 0.513544 0.053665
vt 0.268043 0.268211
vt 0.283743 0.283901
vt 0.230229 0.306049
vt 0.245929 0.321739
vt 0.000137 0.535996
vt 0.000137 0.076102
vt 0.037951 0.038264
vt 0.513834 0.513848
vt 0.999863 0.061413
vt 0.900734 0.037975
vt 0.938548 0.000137
vt 0.806503 0.255091
vt 0.745188 0.193815
vt 0.707375 0.231653
vt 0.768690 0.292929
vt 0.551632 0.387297
vt 0.551632 0.076009
vt 0.589446 0.038171
vt 0.962246 0.410735
vt 0.107124 0.765935
vt 0.160618 0.712441
vt 0.658839 0.663261
vt 0.712552 0.609548
vt 0.015837 0.551686
vt 0.476021 0.551686
vt 0.962049 0.099251
vt 0.612947 0.448573
vt 0.924432 0.448573
s 1
usemtl マテリアル.009
f 2/1/1 3/2/1 1/3/1
f 4/4/2 7/5/2 3/2/2
f 8/6/3 5/7/3 7/5/3
f 6/8/4 1/9/4 5/7/4
f 7/5/5 1/10/5 3/11/5
f 4/12/6 6/8/6 8/6/6
f 10/13/1 11/14/1 9/15/1
f 12/16/2 15/17/2 11/14/2
f 16/18/3 13/19/3 15/17/3
f 14/20/4 9/21/4 13/19/4
f 15/17/5 9/22/5 11/23/5
f 12/24/6 14/20/6 16/18/6
f 18/25/7 19/26/7 17/27/7
f 20/28/2 23/29/2 19/26/2
f 24/30/8 21/31/8 23/29/8
f 22/32/4 17/33/4 21/31/4
f 23/29/9 17/34/9 19/35/9
f 20/36/10 22/32/10 24/30/10
f 26/37/7 27/38/7 25/39/7
f 27/38/2 32/40/2 31/41/2
f 32/40/8 29/42/8 31/41/8
f 30/43/4 25/44/4 29/42/4
f 31/41/9 25/45/9 27/46/9
f 28/47/10 30/43/10 32/40/10
f 2/1/1 4/4/1 3/2/1
f 4/4/2 8/6/2 7/5/2
f 8/6/3 6/8/3 5/7/3
f 6/8/4 2/48/4 1/9/4
f 7/5/5 5/7/5 1/10/5
f 4/12/6 2/49/6 6/8/6
f 10/13/1 12/16/1 11/14/1
f 12/16/2 16/18/2 15/17/2
f 16/18/3 14/20/3 13/19/3
f 14/20/4 10/50/4 9/21/4
f 15/17/5 13/19/5 9/22/5
f 12/24/6 10/51/6 14/20/6
f 18/25/7 20/28/7 19/26/7
f 20/28/2 24/30/2 23/29/2
f 24/30/8 22/32/8 21/31/8
f 22/32/4 18/52/4 17/33/4
f 23/29/9 21/31/9 17/34/9
f 20/36/10 18/53/10 22/32/10
f 26/37/7 28/54/7 27/38/7
f 27/38/2 28/54/2 32/40/2
f 32/40/8 30/43/8 29/42/8
f 30/43/4 26/55/4 25/44/4
f 31/41/9 29/42/9 25/45/9
f 28/47/10 26/56/10 30/43/10
