# Blender 4.1.1
# www.blender.org
mtllib stage0.mtl
o 立方体
v 20.000000 -16.500002 -120.000000
v 20.000000 0.499998 -120.000000
v 20.000000 -16.499983 120.000000
v 20.000000 0.500017 120.000000
v -20.000000 -16.500002 -120.000000
v -20.000000 0.499998 -120.000000
v -20.000000 -16.499983 120.000000
v -20.000000 0.500017 120.000000
v 20.000000 0.500001 -84.985367
v 20.000000 2.500001 -84.985367
v 20.000000 0.500001 -82.985374
v 20.000000 2.500001 -82.985374
v -20.000000 0.500001 -84.985367
v -20.000000 2.500001 -84.985367
v -20.000000 0.500001 -82.985374
v -20.000000 2.500001 -82.985374
v 19.992317 0.070844 -50.319065
v 19.992317 16.929165 -50.319065
v 19.992317 0.070845 -40.319065
v 19.992317 16.929165 -40.319065
v 8.191489 0.070844 -50.319065
v 8.191489 16.929165 -50.319065
v 8.191489 0.070845 -40.319065
v 8.191489 16.929165 -40.319065
v -8.172591 0.070844 -50.319065
v -8.172591 16.929165 -50.319065
v -8.172591 0.070845 -40.319065
v -8.172591 16.929165 -40.319065
v -19.973421 0.070844 -50.319065
v -19.973421 16.929165 -50.319065
v -19.973421 0.070845 -40.319065
v -19.973421 16.929165 -40.319065
v 20.500000 0.500006 -23.520859
v 20.500000 5.500006 -23.520859
v 20.500000 0.500007 -7.520866
v 20.500000 5.500007 -7.520866
v -20.500000 0.500006 -23.520859
v -20.500000 5.500006 -23.520859
v -20.500000 0.500007 -7.520866
v -20.500000 5.500007 -7.520866
v 20.500000 0.000010 29.934982
v 20.500000 20.000010 29.934982
v 20.500000 0.000011 45.934967
v 20.500000 20.000011 45.934967
v -20.500000 0.000010 29.934982
v -20.500000 20.000010 29.934982
v -20.500000 0.000011 45.934967
v -20.500000 20.000011 45.934967
v 5.000000 0.500015 101.281006
v 5.000000 7.500015 101.281006
v 5.000000 0.500016 119.828354
v 5.000000 7.500016 119.828354
v -5.000000 0.500015 101.281006
v -5.000000 7.500015 101.281006
v -5.000000 0.500016 119.828354
v -5.000000 7.500016 119.828354
v -3.300000 0.113231 102.044235
v -3.300000 4.513233 101.857803
v -3.300000 0.113232 92.036392
v -3.300000 4.513232 91.849960
v 3.300000 0.113231 102.044235
v 3.300000 4.513233 101.857803
v 3.300000 0.113232 92.036392
v 3.300000 4.513232 91.849960
v 2.800000 0.082422 104.787628
v 2.800000 10.952823 104.601196
v 2.800000 0.082421 99.787628
v 2.800000 10.952821 99.601196
v 5.200000 0.082422 104.787628
v 5.200000 10.952823 104.601196
v 5.200000 0.082421 99.787628
v 5.200000 10.952821 99.601196
v -5.501320 -0.812491 104.898773
v -5.501320 11.037560 104.898773
v -5.501320 -0.812491 99.898773
v -5.501320 11.037563 99.898773
v -2.501320 -0.812491 104.898773
v -2.501320 11.037560 104.898773
v -2.501320 -0.812491 99.898773
v -2.501320 11.037563 99.898773
vn 1.0000 -0.0000 -0.0000
vn -0.0000 -0.0000 1.0000
vn -1.0000 -0.0000 -0.0000
vn -0.0000 -0.0000 -1.0000
vn -0.0000 -1.0000 -0.0000
vn -0.0000 1.0000 -0.0000
vn -0.0000 -0.0423 -0.9991
vn -0.0000 0.0423 0.9991
vn -0.0000 -0.0171 -0.9999
vn -0.0000 0.0171 0.9999
vt 0.625000 0.000000
vt 0.375000 0.250000
vt 0.375000 0.000000
vt 0.625000 0.250000
vt 0.375000 0.500000
vt 0.625000 0.500000
vt 0.375000 0.750000
vt 0.625000 0.750000
vt 0.375000 1.000000
vt 0.125000 0.750000
vt 0.125000 0.500000
vt 0.875000 0.500000
vt 0.625000 1.000000
vt 0.875000 0.750000
s 0
usemtl マテリアル
f 2/1/1 3/2/1 1/3/1
f 4/4/2 7/5/2 3/2/2
f 8/6/3 5/7/3 7/5/3
f 6/8/4 1/9/4 5/7/4
f 7/5/5 1/10/5 3/11/5
f 4/12/6 6/8/6 8/6/6
f 10/1/1 11/2/1 9/3/1
f 12/4/2 15/5/2 11/2/2
f 16/6/3 13/7/3 15/5/3
f 14/8/4 9/9/4 13/7/4
f 15/5/5 9/10/5 11/11/5
f 12/12/6 14/8/6 16/6/6
f 18/1/1 19/2/1 17/3/1
f 20/4/2 23/5/2 19/2/2
f 24/6/3 21/7/3 23/5/3
f 22/8/4 17/9/4 21/7/4
f 23/5/5 17/10/5 19/11/5
f 20/12/6 22/8/6 24/6/6
f 26/1/1 27/2/1 25/3/1
f 28/4/2 31/5/2 27/2/2
f 32/6/3 29/7/3 31/5/3
f 30/8/4 25/9/4 29/7/4
f 31/5/5 25/10/5 27/11/5
f 28/12/6 30/8/6 32/6/6
f 34/1/1 35/2/1 33/3/1
f 36/4/2 39/5/2 35/2/2
f 40/6/3 37/7/3 39/5/3
f 38/8/4 33/9/4 37/7/4
f 39/5/5 33/10/5 35/11/5
f 36/12/6 38/8/6 40/6/6
f 42/1/1 43/2/1 41/3/1
f 44/4/2 47/5/2 43/2/2
f 48/6/3 45/7/3 47/5/3
f 46/8/4 41/9/4 45/7/4
f 47/5/5 41/10/5 43/11/5
f 44/12/6 46/8/6 48/6/6
f 50/1/1 51/2/1 49/3/1
f 52/4/2 55/5/2 51/2/2
f 56/6/3 53/7/3 55/5/3
f 54/8/4 49/9/4 53/7/4
f 55/5/5 49/10/5 51/11/5
f 52/12/6 54/8/6 56/6/6
f 2/1/1 4/4/1 3/2/1
f 4/4/2 8/6/2 7/5/2
f 8/6/3 6/8/3 5/7/3
f 6/8/4 2/13/4 1/9/4
f 7/5/5 5/7/5 1/10/5
f 4/12/6 2/14/6 6/8/6
f 10/1/1 12/4/1 11/2/1
f 12/4/2 16/6/2 15/5/2
f 16/6/3 14/8/3 13/7/3
f 14/8/4 10/13/4 9/9/4
f 15/5/5 13/7/5 9/10/5
f 12/12/6 10/14/6 14/8/6
f 18/1/1 20/4/1 19/2/1
f 20/4/2 24/6/2 23/5/2
f 24/6/3 22/8/3 21/7/3
f 22/8/4 18/13/4 17/9/4
f 23/5/5 21/7/5 17/10/5
f 20/12/6 18/14/6 22/8/6
f 26/1/1 28/4/1 27/2/1
f 28/4/2 32/6/2 31/5/2
f 32/6/3 30/8/3 29/7/3
f 30/8/4 26/13/4 25/9/4
f 31/5/5 29/7/5 25/10/5
f 28/12/6 26/14/6 30/8/6
f 34/1/1 36/4/1 35/2/1
f 36/4/2 40/6/2 39/5/2
f 40/6/3 38/8/3 37/7/3
f 38/8/4 34/13/4 33/9/4
f 39/5/5 37/7/5 33/10/5
f 36/12/6 34/14/6 38/8/6
f 42/1/1 44/4/1 43/2/1
f 44/4/2 48/6/2 47/5/2
f 48/6/3 46/8/3 45/7/3
f 46/8/4 42/13/4 41/9/4
f 47/5/5 45/7/5 41/10/5
f 44/12/6 42/14/6 46/8/6
f 50/1/1 52/4/1 51/2/1
f 52/4/2 56/6/2 55/5/2
f 56/6/3 54/8/3 53/7/3
f 54/8/4 50/13/4 49/9/4
f 55/5/5 53/7/5 49/10/5
f 52/12/6 50/14/6 54/8/6
f 58/1/3 59/2/3 57/3/3
f 60/4/7 63/5/7 59/2/7
f 63/5/1 62/8/1 61/7/1
f 62/8/8 57/9/8 61/7/8
f 63/5/5 57/10/5 59/11/5
f 60/12/6 62/8/6 64/6/6
f 66/1/3 67/2/3 65/3/3
f 68/4/9 71/5/9 67/2/9
f 71/5/1 70/8/1 69/7/1
f 70/8/10 65/9/10 69/7/10
f 71/5/5 65/10/5 67/11/5
f 68/12/6 70/8/6 72/6/6
f 74/1/3 75/2/3 73/3/3
f 76/4/4 79/5/4 75/2/4
f 79/5/1 78/8/1 77/7/1
f 78/8/2 73/9/2 77/7/2
f 79/5/5 73/10/5 75/11/5
f 76/12/6 78/8/6 80/6/6
f 58/1/3 60/4/3 59/2/3
f 60/4/7 64/6/7 63/5/7
f 63/5/1 64/6/1 62/8/1
f 62/8/8 58/13/8 57/9/8
f 63/5/5 61/7/5 57/10/5
f 60/12/6 58/14/6 62/8/6
f 66/1/3 68/4/3 67/2/3
f 68/4/9 72/6/9 71/5/9
f 71/5/1 72/6/1 70/8/1
f 70/8/10 66/13/10 65/9/10
f 71/5/5 69/7/5 65/10/5
f 68/12/6 66/14/6 70/8/6
f 74/1/3 76/4/3 75/2/3
f 76/4/4 80/6/4 79/5/4
f 79/5/1 80/6/1 78/8/1
f 78/8/2 74/13/2 73/9/2
f 79/5/5 77/7/5 73/10/5
f 76/12/6 74/14/6 78/8/6
