# Blender 4.1.1
# www.blender.org
mtllib goal.mtl
o Cube
v -1.400000 -1.600000 1.400000
v -1.400000 -2.000000 1.400000
v -1.400000 -1.600000 -1.400000
v -1.400000 -2.000000 -1.400000
v 1.400000 -1.600000 1.400000
v 1.400000 -2.000000 1.400000
v 1.400000 -1.600000 -1.400000
v 1.400000 -2.000000 -1.400000
v 1.017965 -1.600000 -0.198148
v 1.017965 2.400000 -0.198148
v 1.017965 -1.600000 0.198148
v 1.017965 2.400000 0.198148
v 0.621670 -1.600000 -0.198148
v 0.621670 2.400000 -0.198148
v 0.621670 -1.600000 0.198148
v 0.621670 2.400000 0.198148
v 0.732249 0.668573 0.006942
v -1.932249 0.668573 0.006942
v 0.732249 2.371427 -0.006942
v -1.932249 2.371427 -0.006942
v 2.000000 -2.000000 0.000000
v -2.000000 -1.600000 0.000000
v 2.000000 -1.600000 0.000000
v -2.000000 -2.000000 0.000000
v 0.000000 -2.000000 2.000000
v 0.000000 -1.600000 -2.000000
v 0.000000 -2.000000 -2.000000
v 0.000000 -1.600000 2.000000
vn -0.0000 1.0000 -0.0000
vn 0.3939 -0.0000 -0.9191
vn 0.9191 -0.0000 0.3939
vn -0.9191 -0.0000 -0.3939
vn -0.3939 -0.0000 0.9191
vn 1.0000 -0.0000 -0.0000
vn -0.0000 -0.0000 1.0000
vn -1.0000 -0.0000 -0.0000
vn -0.0000 -0.0000 -1.0000
vn -0.0000 -1.0000 -0.0000
vn -0.0000 -0.0082 -1.0000
vn -0.9191 -0.0000 0.3939
vn 0.9191 -0.0000 -0.3939
vn 0.3939 -0.0000 0.9191
vn -0.3939 -0.0000 -0.9191
vt 0.301007 0.656314
vt 0.484091 0.734779
vt 0.405626 0.917862
vt 0.093151 0.498118
vt 0.064696 0.606474
vt 0.064696 0.498118
vt 0.093151 0.714829
vt 0.064696 0.823185
vt 0.064696 0.714829
vt 0.093151 0.281407
vt 0.064696 0.389763
vt 0.064696 0.281407
vt 0.093151 0.064696
vt 0.064696 0.173051
vt 0.064696 0.064696
vt 0.222543 0.084630
vt 0.443689 0.265907
vt 0.423754 0.285842
vt 0.644900 0.064696
vt 0.463624 0.285842
vt 0.664835 0.487053
vt 0.443689 0.305777
vt 0.242478 0.506988
vt 0.684770 0.506988
vt 0.644900 0.506988
vt 0.814161 0.064696
vt 0.935304 0.254245
vt 0.814161 0.254245
vt 0.093151 0.173051
vt 0.093151 0.606474
vt 0.613482 0.734778
vt 0.796566 0.656314
vt 0.875030 0.839398
vt 0.093151 0.823185
vt 0.064696 0.931540
vt 0.093151 0.389763
vt 0.297271 0.917862
vt 0.222543 0.839398
vt 0.222543 0.731042
vt 0.409363 0.656314
vt 0.484091 0.843134
vt 0.242477 0.064696
vt 0.664835 0.084630
vt 0.222543 0.487053
vt 0.664835 0.526923
vt 0.935304 0.064696
vt 0.800302 0.917862
vt 0.691947 0.917862
vt 0.613482 0.843134
vt 0.688210 0.656314
vt 0.875030 0.731042
vt 0.093151 0.931540
s 0
usemtl Material
f 7/1/1 3/2/1 1/3/1
f 26/4/2 8/5/2 27/6/2
f 23/7/3 6/8/3 21/9/3
f 22/10/4 4/11/4 24/12/4
f 28/13/5 2/14/5 25/15/5
f 10/16/6 11/17/6 9/18/6
f 12/19/7 15/20/7 11/17/7
f 16/21/8 13/22/8 15/20/8
f 14/23/9 9/18/9 13/22/9
f 15/20/10 9/18/10 11/17/10
f 12/24/1 14/25/1 16/21/1
f 18/26/11 19/27/11 17/28/11
f 1/29/12 24/12/12 2/14/12
f 7/30/13 21/9/13 8/5/13
f 4/31/10 8/32/10 6/33/10
f 5/34/14 25/35/14 6/8/14
f 3/36/15 27/6/15 4/11/15
f 1/3/1 28/37/1 5/38/1
f 5/38/1 23/39/1 7/1/1
f 7/1/1 26/40/1 3/2/1
f 3/2/1 22/41/1 1/3/1
f 1/3/1 5/38/1 7/1/1
f 26/4/2 7/30/2 8/5/2
f 23/7/3 5/34/3 6/8/3
f 22/10/4 3/36/4 4/11/4
f 28/13/5 1/29/5 2/14/5
f 10/16/6 12/42/6 11/17/6
f 12/19/7 16/43/7 15/20/7
f 16/21/8 14/25/8 13/22/8
f 14/23/9 10/44/9 9/18/9
f 15/20/10 13/22/10 9/18/10
f 12/24/1 10/45/1 14/25/1
f 18/26/11 20/46/11 19/27/11
f 1/29/12 22/10/12 24/12/12
f 7/30/13 23/7/13 21/9/13
f 6/33/10 25/47/10 2/48/10
f 2/48/10 24/49/10 4/31/10
f 4/31/10 27/50/10 8/32/10
f 8/32/10 21/51/10 6/33/10
f 6/33/10 2/48/10 4/31/10
f 5/34/14 28/52/14 25/35/14
f 3/36/15 26/4/15 27/6/15
